<svg width="2037" height="1952" viewBox="0 0 2037 1952" fill="none" xmlns="http://www.w3.org/2000/svg">
<path d="M1612.9 1309.71V1305.35H1608.54H1544.87H1540.51V1309.71V1660.33V1664.69H1544.87H1608.54H1612.9V1660.33V1309.71Z" fill="white" stroke="#5B5EAB" stroke-width="8.7219"/>
<path d="M1625 1313.35L1623.69 1314.43L1623.45 1316.11C1620.1 1339.84 1617.77 1355.28 1616.46 1362.53L1615.02 1370.46L1622.44 1367.32C1630.36 1363.98 1641.72 1362.16 1656.83 1362.16H1656.87L1656.9 1362.16L1687.06 1361.72V1660.33V1664.69H1691.42H1754.58H1758.94V1660.33V1361.65H1818.73H1823.1V1357.29V1309.71V1305.35H1818.73H1653.83C1641.67 1305.35 1631.79 1307.76 1625 1313.35Z" fill="white" stroke="#5B5EAB" stroke-width="8.7219"/>
<mask id="path-3-outside-1_1812_1167" maskUnits="userSpaceOnUse" x="362.099" y="8.12085" width="1305" height="1241" fill="black">
<rect fill="white" x="362.099" y="8.12085" width="1305" height="1241"/>
<path d="M374.457 281.577C368.779 273.806 370.473 262.901 378.24 257.22L525.377 149.619C533.145 143.938 544.045 145.632 549.723 153.404L578.224 192.41C583.902 200.181 582.208 211.087 574.439 216.767L497.209 273.245C489.441 278.926 487.747 289.832 493.425 297.603L500.052 306.672C505.73 314.444 516.63 316.139 524.398 310.458L576.161 272.603C583.929 266.924 594.829 268.617 600.507 276.389L630.28 317.139C635.958 324.91 634.264 335.814 626.497 341.495L574.735 379.35C566.968 385.031 565.274 395.935 570.952 403.706L615.674 464.917C621.353 472.689 619.658 483.593 611.89 489.274L570.111 519.827C562.343 525.507 551.443 523.812 545.765 516.041L374.457 281.577ZM973.893 342.042L1026.45 344.596C1036.06 345.063 1044.23 337.647 1044.69 328.031L1048.76 244.155C1049.59 227.239 1071.6 221.314 1080.79 235.533L1150.51 343.353C1153.56 348.066 1158.69 351.022 1164.3 351.294L1215.07 353.765C1224.68 354.231 1232.85 346.815 1233.32 337.201L1247.4 47.1162C1247.87 37.5019 1240.46 29.3284 1230.85 28.8618L1178.29 26.3088C1168.68 25.8422 1160.51 33.2579 1160.05 42.8723L1155.95 127.248C1155.13 144.159 1133.12 150.088 1123.93 135.877L1053.79 27.5215C1050.74 22.8123 1045.61 19.8584 1040.01 19.5865L989.669 17.1417C980.058 16.6752 971.889 24.0909 971.422 33.7052L957.337 323.786C956.87 333.401 964.283 341.574 973.893 342.042ZM1301.43 355.145L1470.58 119.114C1476.18 111.291 1487.07 109.496 1494.89 115.105L1590.37 183.596C1608.41 196.533 1623.13 212.406 1634.15 230.769C1645.07 249.021 1652.37 268.554 1655.82 288.832C1659.27 309.153 1658.76 330.104 1654.3 351.107C1649.79 372.266 1640.87 392.262 1627.76 410.542C1614.83 428.592 1598.96 443.327 1580.61 454.339C1562.39 465.263 1542.84 472.613 1522.51 476.186C1515.5 477.42 1508.42 478.169 1501.3 478.434C1487.67 478.944 1473.89 477.686 1460.13 474.663C1439.11 470.047 1419.19 461.06 1400.92 447.954L1305.44 379.466C1297.62 373.857 1295.82 362.968 1301.43 355.145ZM1426.21 361.095L1447.11 376.083C1455.66 382.212 1465.01 386.437 1474.92 388.635C1484.9 390.858 1494.82 391.183 1504.41 389.608C1513.97 388.03 1523.26 384.534 1532.02 379.218C1540.7 373.942 1548.3 366.818 1554.58 358.049C1560.7 349.514 1564.92 340.151 1567.13 330.219C1569.36 320.193 1569.72 310.173 1568.21 300.445C1566.7 290.791 1563.26 281.469 1557.97 272.747C1552.69 264.058 1545.69 256.546 1537.16 250.43L1516.26 235.441C1508.44 229.833 1497.56 231.626 1491.95 239.449L1422.21 336.773C1416.6 344.596 1418.39 355.487 1426.21 361.095ZM706.01 42.0462L705.216 39.5047L720.139 32.2811L721.602 34.6576C722.597 36.2737 723.684 37.8448 724.838 39.5073C727.418 43.2319 730.087 47.0854 731.62 51.484C733.863 57.9189 735.68 64.6154 737.436 71.0916C740.446 82.1893 743.559 93.6672 748.822 103.596C756.292 117.693 768.12 137.962 784.517 151.173C815.004 175.745 818.302 197.219 796.281 227.76C792.418 233.115 790.646 236.423 791.012 237.594C793.801 245.567 796.126 253.863 798.373 261.885C807.44 294.236 816.003 324.792 853.753 340.007C871.844 347.301 884.424 361.99 888.266 380.31C892.444 400.231 885.734 421.543 870.314 437.324C861.558 446.283 860.146 452.656 864.267 464.603C879.054 507.452 893.925 551.074 908.306 593.26C939.784 685.602 972.333 781.092 1006.03 874.385C1012.63 892.661 1027.93 908.592 1042.72 924.001C1046.39 927.817 1050.17 931.762 1053.73 935.646C1070.67 954.15 1077.57 977.635 1072.71 998.596C1074.55 1000.32 1076.45 1001.92 1078.44 1003.33C1114.23 1028.68 1103.1 1023.53 1138.97 1047.53C1156.56 1059.3 1165.81 1074.17 1183.63 1086.25C1190.52 1090.92 1194.04 1091.63 1201.38 1086.67C1219.19 1074.6 1239.56 1072.09 1257.26 1079.78C1275.17 1087.56 1287.39 1104.4 1290.8 1126C1293.88 1145.57 1301.93 1159.25 1316.12 1169.03C1332.16 1180.1 1348.24 1191.67 1363.78 1202.87C1369.4 1206.92 1375.03 1210.97 1380.67 1215.01C1383.62 1217.12 1386.53 1219.35 1389.34 1221.5C1390.63 1222.49 1391.92 1223.48 1393.22 1224.45L1396.2 1226.7L1389.8 1237.19L1386.42 1235.52C1384.97 1234.8 1383.51 1234.1 1382.05 1233.39C1378.85 1231.86 1375.54 1230.26 1372.33 1228.49C1359.51 1221.43 1346.7 1214.34 1333.9 1207.24C1323.12 1201.26 1312.33 1195.29 1301.54 1189.33C1286.59 1181.08 1271.86 1179.86 1255.2 1185.49C1234.09 1192.61 1213.36 1189.75 1198.32 1177.61C1182.62 1164.95 1175.14 1144.14 1177.79 1120.52C1178.14 1117.43 1175.49 1111.53 1173.14 1110.17L1169.62 1108.12C1113.19 1075.36 1112.02 1068.77 1053.7 1037.23C1052.12 1036.37 1050.45 1035.63 1048.72 1034.96C1038.31 1042.74 1025.7 1047.23 1012.47 1047.23C1012.04 1047.23 1011.61 1047.22 1011.18 1047.21C982.548 1046.58 961.948 1032.83 953.174 1008.48C949.382 997.961 949.916 986.004 950.433 974.444C950.596 970.802 950.764 967.036 950.784 963.446C950.833 954.255 951.661 944.794 952.46 935.643C954.024 917.771 955.64 899.287 951.303 882.972C925.813 787.079 898.183 690.024 871.462 596.166C860.17 556.501 848.492 515.487 837.134 475.109C833.506 462.212 829.746 456.422 815.848 453.938C794.516 450.13 777.7 437.382 769.71 418.959C761.816 400.76 763.968 380.022 775.61 362.065C796.906 329.221 786.598 300.171 775.685 269.414C772.797 261.278 769.812 252.863 767.495 244.455C766.83 242.954 760.249 240.972 757.085 240.019C755.504 239.542 753.975 239.08 752.628 238.612C737.52 233.354 725.45 222.711 720.338 210.139C716.444 200.563 716.809 190.644 721.395 181.461C738.738 146.727 730.404 115.95 717.708 79.323C714.765 70.8364 712.125 62.1216 709.573 53.6917C708.395 49.8047 707.218 45.9203 706.01 42.0462ZM1202.35 1140.18C1204.47 1148.7 1209.87 1155.9 1217.55 1160.46C1225.25 1165.03 1234.03 1166.37 1242.27 1164.25C1250.6 1162.1 1257.74 1156.58 1262.36 1148.7C1266.83 1141.08 1268.11 1132.42 1265.96 1124.29C1263.75 1115.91 1258.09 1108.74 1250.02 1104.09C1245.03 1101.22 1239.53 1099.85 1234.09 1099.85C1223.07 1099.85 1212.26 1105.43 1206.18 1115.43C1201.6 1122.95 1200.24 1131.74 1202.35 1140.18ZM998.4 998.081C1001.84 1000.59 1006.75 1001.38 1011.51 1000.2C1016.27 999.018 1020.22 996.049 1022.07 992.253C1026.84 982.518 1024.69 974.346 1016.01 969.24C1005.15 962.854 997.628 968.732 993.185 974.9C988.203 984.312 989.911 991.895 998.4 998.081ZM794.191 405.718C797.258 414.78 803.678 422.075 812.269 426.261C820.625 430.329 829.966 430.909 838.581 427.88C856.653 421.526 866.689 400.965 860.495 382.979C857.473 374.206 851.092 367.055 842.528 362.844C837.5 360.374 832.146 359.125 826.823 359.125C823.085 359.125 819.359 359.739 815.772 360.98C797.334 367.352 787.855 387.002 794.191 405.718ZM747.982 200.553C748.945 204.485 754.873 208.172 762.377 212.841C765.592 214.841 769.137 217.045 772.799 219.588C774.423 215.24 776.175 211.194 777.763 207.526C781.062 199.911 784.179 192.718 782.644 189.937C780.132 185.384 772.664 182.635 765.441 179.977C763.006 179.078 760.512 178.161 758.137 177.152C756.995 179.307 755.705 181.479 754.445 183.6C750.75 189.816 746.927 196.245 747.982 200.553Z"/>
</mask>
<path d="M374.457 281.577C368.779 273.806 370.473 262.901 378.24 257.22L525.377 149.619C533.145 143.938 544.045 145.632 549.723 153.404L578.224 192.41C583.902 200.181 582.208 211.087 574.439 216.767L497.209 273.245C489.441 278.926 487.747 289.832 493.425 297.603L500.052 306.672C505.73 314.444 516.63 316.139 524.398 310.458L576.161 272.603C583.929 266.924 594.829 268.617 600.507 276.389L630.28 317.139C635.958 324.91 634.264 335.814 626.497 341.495L574.735 379.35C566.968 385.031 565.274 395.935 570.952 403.706L615.674 464.917C621.353 472.689 619.658 483.593 611.89 489.274L570.111 519.827C562.343 525.507 551.443 523.812 545.765 516.041L374.457 281.577ZM973.893 342.042L1026.45 344.596C1036.06 345.063 1044.23 337.647 1044.69 328.031L1048.76 244.155C1049.59 227.239 1071.6 221.314 1080.79 235.533L1150.51 343.353C1153.56 348.066 1158.69 351.022 1164.3 351.294L1215.07 353.765C1224.68 354.231 1232.85 346.815 1233.32 337.201L1247.4 47.1162C1247.87 37.5019 1240.46 29.3284 1230.85 28.8618L1178.29 26.3088C1168.68 25.8422 1160.51 33.2579 1160.05 42.8723L1155.95 127.248C1155.13 144.159 1133.12 150.088 1123.93 135.877L1053.79 27.5215C1050.74 22.8123 1045.61 19.8584 1040.01 19.5865L989.669 17.1417C980.058 16.6752 971.889 24.0909 971.422 33.7052L957.337 323.786C956.87 333.401 964.283 341.574 973.893 342.042ZM1301.43 355.145L1470.58 119.114C1476.18 111.291 1487.07 109.496 1494.89 115.105L1590.37 183.596C1608.41 196.533 1623.13 212.406 1634.15 230.769C1645.07 249.021 1652.37 268.554 1655.82 288.832C1659.27 309.153 1658.76 330.104 1654.3 351.107C1649.79 372.266 1640.87 392.262 1627.76 410.542C1614.83 428.592 1598.96 443.327 1580.61 454.339C1562.39 465.263 1542.84 472.613 1522.51 476.186C1515.5 477.42 1508.42 478.169 1501.3 478.434C1487.67 478.944 1473.89 477.686 1460.13 474.663C1439.11 470.047 1419.19 461.06 1400.92 447.954L1305.44 379.466C1297.62 373.857 1295.82 362.968 1301.43 355.145ZM1426.21 361.095L1447.11 376.083C1455.66 382.212 1465.01 386.437 1474.92 388.635C1484.9 390.858 1494.82 391.183 1504.41 389.608C1513.97 388.03 1523.26 384.534 1532.02 379.218C1540.7 373.942 1548.3 366.818 1554.58 358.049C1560.7 349.514 1564.92 340.151 1567.13 330.219C1569.36 320.193 1569.72 310.173 1568.21 300.445C1566.7 290.791 1563.26 281.469 1557.97 272.747C1552.69 264.058 1545.69 256.546 1537.16 250.43L1516.26 235.441C1508.44 229.833 1497.56 231.626 1491.95 239.449L1422.21 336.773C1416.6 344.596 1418.39 355.487 1426.21 361.095ZM706.01 42.0462L705.216 39.5047L720.139 32.2811L721.602 34.6576C722.597 36.2737 723.684 37.8448 724.838 39.5073C727.418 43.2319 730.087 47.0854 731.62 51.484C733.863 57.9189 735.68 64.6154 737.436 71.0916C740.446 82.1893 743.559 93.6672 748.822 103.596C756.292 117.693 768.12 137.962 784.517 151.173C815.004 175.745 818.302 197.219 796.281 227.76C792.418 233.115 790.646 236.423 791.012 237.594C793.801 245.567 796.126 253.863 798.373 261.885C807.44 294.236 816.003 324.792 853.753 340.007C871.844 347.301 884.424 361.99 888.266 380.31C892.444 400.231 885.734 421.543 870.314 437.324C861.558 446.283 860.146 452.656 864.267 464.603C879.054 507.452 893.925 551.074 908.306 593.26C939.784 685.602 972.333 781.092 1006.03 874.385C1012.63 892.661 1027.93 908.592 1042.72 924.001C1046.39 927.817 1050.17 931.762 1053.73 935.646C1070.67 954.15 1077.57 977.635 1072.71 998.596C1074.55 1000.32 1076.45 1001.92 1078.44 1003.33C1114.23 1028.68 1103.1 1023.53 1138.97 1047.53C1156.56 1059.3 1165.81 1074.17 1183.63 1086.25C1190.52 1090.92 1194.04 1091.63 1201.38 1086.67C1219.19 1074.6 1239.56 1072.09 1257.26 1079.78C1275.17 1087.56 1287.39 1104.4 1290.8 1126C1293.88 1145.57 1301.93 1159.25 1316.12 1169.03C1332.16 1180.1 1348.24 1191.67 1363.78 1202.87C1369.4 1206.92 1375.03 1210.97 1380.67 1215.01C1383.62 1217.12 1386.53 1219.35 1389.34 1221.5C1390.63 1222.49 1391.92 1223.48 1393.22 1224.45L1396.2 1226.7L1389.8 1237.19L1386.42 1235.52C1384.97 1234.8 1383.51 1234.1 1382.05 1233.39C1378.85 1231.86 1375.54 1230.26 1372.33 1228.49C1359.51 1221.43 1346.7 1214.34 1333.9 1207.24C1323.12 1201.26 1312.33 1195.29 1301.54 1189.33C1286.59 1181.08 1271.86 1179.86 1255.2 1185.49C1234.09 1192.61 1213.36 1189.75 1198.32 1177.61C1182.62 1164.95 1175.14 1144.14 1177.79 1120.52C1178.14 1117.43 1175.49 1111.53 1173.14 1110.17L1169.62 1108.12C1113.19 1075.36 1112.02 1068.77 1053.7 1037.23C1052.12 1036.37 1050.45 1035.63 1048.72 1034.96C1038.31 1042.74 1025.7 1047.23 1012.47 1047.23C1012.04 1047.23 1011.61 1047.22 1011.18 1047.21C982.548 1046.58 961.948 1032.83 953.174 1008.48C949.382 997.961 949.916 986.004 950.433 974.444C950.596 970.802 950.764 967.036 950.784 963.446C950.833 954.255 951.661 944.794 952.46 935.643C954.024 917.771 955.64 899.287 951.303 882.972C925.813 787.079 898.183 690.024 871.462 596.166C860.17 556.501 848.492 515.487 837.134 475.109C833.506 462.212 829.746 456.422 815.848 453.938C794.516 450.13 777.7 437.382 769.71 418.959C761.816 400.76 763.968 380.022 775.61 362.065C796.906 329.221 786.598 300.171 775.685 269.414C772.797 261.278 769.812 252.863 767.495 244.455C766.83 242.954 760.249 240.972 757.085 240.019C755.504 239.542 753.975 239.08 752.628 238.612C737.52 233.354 725.45 222.711 720.338 210.139C716.444 200.563 716.809 190.644 721.395 181.461C738.738 146.727 730.404 115.95 717.708 79.323C714.765 70.8364 712.125 62.1216 709.573 53.6917C708.395 49.8047 707.218 45.9203 706.01 42.0462ZM1202.35 1140.18C1204.47 1148.7 1209.87 1155.9 1217.55 1160.46C1225.25 1165.03 1234.03 1166.37 1242.27 1164.25C1250.6 1162.1 1257.74 1156.58 1262.36 1148.7C1266.83 1141.08 1268.11 1132.42 1265.96 1124.29C1263.75 1115.91 1258.09 1108.74 1250.02 1104.09C1245.03 1101.22 1239.53 1099.85 1234.09 1099.85C1223.07 1099.85 1212.26 1105.43 1206.18 1115.43C1201.6 1122.95 1200.24 1131.74 1202.35 1140.18ZM998.4 998.081C1001.84 1000.59 1006.75 1001.38 1011.51 1000.2C1016.27 999.018 1020.22 996.049 1022.07 992.253C1026.84 982.518 1024.69 974.346 1016.01 969.24C1005.15 962.854 997.628 968.732 993.185 974.9C988.203 984.312 989.911 991.895 998.4 998.081ZM794.191 405.718C797.258 414.78 803.678 422.075 812.269 426.261C820.625 430.329 829.966 430.909 838.581 427.88C856.653 421.526 866.689 400.965 860.495 382.979C857.473 374.206 851.092 367.055 842.528 362.844C837.5 360.374 832.146 359.125 826.823 359.125C823.085 359.125 819.359 359.739 815.772 360.98C797.334 367.352 787.855 387.002 794.191 405.718ZM747.982 200.553C748.945 204.485 754.873 208.172 762.377 212.841C765.592 214.841 769.137 217.045 772.799 219.588C774.423 215.24 776.175 211.194 777.763 207.526C781.062 199.911 784.179 192.718 782.644 189.937C780.132 185.384 772.664 182.635 765.441 179.977C763.006 179.078 760.512 178.161 758.137 177.152C756.995 179.307 755.705 181.479 754.445 183.6C750.75 189.816 746.927 196.245 747.982 200.553Z" fill="white"/>
<path d="M374.457 281.577C368.779 273.806 370.473 262.901 378.24 257.22L525.377 149.619C533.145 143.938 544.045 145.632 549.723 153.404L578.224 192.41C583.902 200.181 582.208 211.087 574.439 216.767L497.209 273.245C489.441 278.926 487.747 289.832 493.425 297.603L500.052 306.672C505.73 314.444 516.63 316.139 524.398 310.458L576.161 272.603C583.929 266.924 594.829 268.617 600.507 276.389L630.28 317.139C635.958 324.91 634.264 335.814 626.497 341.495L574.735 379.35C566.968 385.031 565.274 395.935 570.952 403.706L615.674 464.917C621.353 472.689 619.658 483.593 611.89 489.274L570.111 519.827C562.343 525.507 551.443 523.812 545.765 516.041L374.457 281.577ZM973.893 342.042L1026.45 344.596C1036.06 345.063 1044.23 337.647 1044.69 328.031L1048.76 244.155C1049.59 227.239 1071.6 221.314 1080.79 235.533L1150.51 343.353C1153.56 348.066 1158.69 351.022 1164.3 351.294L1215.07 353.765C1224.68 354.231 1232.85 346.815 1233.32 337.201L1247.4 47.1162C1247.87 37.5019 1240.46 29.3284 1230.85 28.8618L1178.29 26.3088C1168.68 25.8422 1160.51 33.2579 1160.05 42.8723L1155.95 127.248C1155.13 144.159 1133.12 150.088 1123.93 135.877L1053.79 27.5215C1050.74 22.8123 1045.61 19.8584 1040.01 19.5865L989.669 17.1417C980.058 16.6752 971.889 24.0909 971.422 33.7052L957.337 323.786C956.87 333.401 964.283 341.574 973.893 342.042ZM1301.43 355.145L1470.58 119.114C1476.18 111.291 1487.07 109.496 1494.89 115.105L1590.37 183.596C1608.41 196.533 1623.13 212.406 1634.15 230.769C1645.07 249.021 1652.37 268.554 1655.82 288.832C1659.27 309.153 1658.76 330.104 1654.3 351.107C1649.79 372.266 1640.87 392.262 1627.76 410.542C1614.83 428.592 1598.96 443.327 1580.61 454.339C1562.39 465.263 1542.84 472.613 1522.51 476.186C1515.5 477.42 1508.42 478.169 1501.3 478.434C1487.67 478.944 1473.89 477.686 1460.13 474.663C1439.11 470.047 1419.19 461.06 1400.92 447.954L1305.44 379.466C1297.62 373.857 1295.82 362.968 1301.43 355.145ZM1426.21 361.095L1447.11 376.083C1455.66 382.212 1465.01 386.437 1474.92 388.635C1484.9 390.858 1494.82 391.183 1504.41 389.608C1513.97 388.03 1523.26 384.534 1532.02 379.218C1540.7 373.942 1548.3 366.818 1554.58 358.049C1560.7 349.514 1564.92 340.151 1567.13 330.219C1569.36 320.193 1569.72 310.173 1568.21 300.445C1566.7 290.791 1563.26 281.469 1557.97 272.747C1552.69 264.058 1545.69 256.546 1537.16 250.43L1516.26 235.441C1508.44 229.833 1497.56 231.626 1491.95 239.449L1422.21 336.773C1416.6 344.596 1418.39 355.487 1426.21 361.095ZM706.01 42.0462L705.216 39.5047L720.139 32.2811L721.602 34.6576C722.597 36.2737 723.684 37.8448 724.838 39.5073C727.418 43.2319 730.087 47.0854 731.62 51.484C733.863 57.9189 735.68 64.6154 737.436 71.0916C740.446 82.1893 743.559 93.6672 748.822 103.596C756.292 117.693 768.12 137.962 784.517 151.173C815.004 175.745 818.302 197.219 796.281 227.76C792.418 233.115 790.646 236.423 791.012 237.594C793.801 245.567 796.126 253.863 798.373 261.885C807.44 294.236 816.003 324.792 853.753 340.007C871.844 347.301 884.424 361.99 888.266 380.31C892.444 400.231 885.734 421.543 870.314 437.324C861.558 446.283 860.146 452.656 864.267 464.603C879.054 507.452 893.925 551.074 908.306 593.26C939.784 685.602 972.333 781.092 1006.03 874.385C1012.63 892.661 1027.93 908.592 1042.72 924.001C1046.39 927.817 1050.17 931.762 1053.73 935.646C1070.67 954.15 1077.57 977.635 1072.71 998.596C1074.55 1000.32 1076.45 1001.92 1078.44 1003.33C1114.23 1028.68 1103.1 1023.53 1138.97 1047.53C1156.56 1059.3 1165.81 1074.17 1183.63 1086.25C1190.52 1090.92 1194.04 1091.63 1201.38 1086.67C1219.19 1074.6 1239.56 1072.09 1257.26 1079.78C1275.17 1087.56 1287.39 1104.4 1290.8 1126C1293.88 1145.57 1301.93 1159.25 1316.12 1169.03C1332.16 1180.1 1348.24 1191.67 1363.78 1202.87C1369.4 1206.92 1375.03 1210.97 1380.67 1215.01C1383.62 1217.12 1386.53 1219.35 1389.34 1221.5C1390.63 1222.49 1391.92 1223.48 1393.22 1224.45L1396.2 1226.7L1389.8 1237.19L1386.42 1235.52C1384.97 1234.8 1383.51 1234.1 1382.05 1233.39C1378.85 1231.86 1375.54 1230.26 1372.33 1228.49C1359.51 1221.43 1346.7 1214.34 1333.9 1207.24C1323.12 1201.26 1312.33 1195.29 1301.54 1189.33C1286.59 1181.08 1271.86 1179.86 1255.2 1185.49C1234.09 1192.61 1213.36 1189.75 1198.32 1177.61C1182.62 1164.95 1175.14 1144.14 1177.79 1120.52C1178.14 1117.43 1175.49 1111.53 1173.14 1110.17L1169.62 1108.12C1113.19 1075.36 1112.02 1068.77 1053.7 1037.23C1052.12 1036.37 1050.45 1035.63 1048.72 1034.96C1038.31 1042.74 1025.7 1047.23 1012.47 1047.23C1012.04 1047.23 1011.61 1047.22 1011.18 1047.21C982.548 1046.58 961.948 1032.83 953.174 1008.48C949.382 997.961 949.916 986.004 950.433 974.444C950.596 970.802 950.764 967.036 950.784 963.446C950.833 954.255 951.661 944.794 952.46 935.643C954.024 917.771 955.64 899.287 951.303 882.972C925.813 787.079 898.183 690.024 871.462 596.166C860.17 556.501 848.492 515.487 837.134 475.109C833.506 462.212 829.746 456.422 815.848 453.938C794.516 450.13 777.7 437.382 769.71 418.959C761.816 400.76 763.968 380.022 775.61 362.065C796.906 329.221 786.598 300.171 775.685 269.414C772.797 261.278 769.812 252.863 767.495 244.455C766.83 242.954 760.249 240.972 757.085 240.019C755.504 239.542 753.975 239.08 752.628 238.612C737.52 233.354 725.45 222.711 720.338 210.139C716.444 200.563 716.809 190.644 721.395 181.461C738.738 146.727 730.404 115.95 717.708 79.323C714.765 70.8364 712.125 62.1216 709.573 53.6917C708.395 49.8047 707.218 45.9203 706.01 42.0462ZM1202.35 1140.18C1204.47 1148.7 1209.87 1155.9 1217.55 1160.46C1225.25 1165.03 1234.03 1166.37 1242.27 1164.25C1250.6 1162.1 1257.74 1156.58 1262.36 1148.7C1266.83 1141.08 1268.11 1132.42 1265.96 1124.29C1263.75 1115.91 1258.09 1108.74 1250.02 1104.09C1245.03 1101.22 1239.53 1099.85 1234.09 1099.85C1223.07 1099.85 1212.26 1105.43 1206.18 1115.43C1201.6 1122.95 1200.24 1131.74 1202.35 1140.18ZM998.4 998.081C1001.84 1000.59 1006.75 1001.38 1011.51 1000.2C1016.27 999.018 1020.22 996.049 1022.07 992.253C1026.84 982.518 1024.69 974.346 1016.01 969.24C1005.15 962.854 997.628 968.732 993.185 974.9C988.203 984.312 989.911 991.895 998.4 998.081ZM794.191 405.718C797.258 414.78 803.678 422.075 812.269 426.261C820.625 430.329 829.966 430.909 838.581 427.88C856.653 421.526 866.689 400.965 860.495 382.979C857.473 374.206 851.092 367.055 842.528 362.844C837.5 360.374 832.146 359.125 826.823 359.125C823.085 359.125 819.359 359.739 815.772 360.98C797.334 367.352 787.855 387.002 794.191 405.718ZM747.982 200.553C748.945 204.485 754.873 208.172 762.377 212.841C765.592 214.841 769.137 217.045 772.799 219.588C774.423 215.24 776.175 211.194 777.763 207.526C781.062 199.911 784.179 192.718 782.644 189.937C780.132 185.384 772.664 182.635 765.441 179.977C763.006 179.078 760.512 178.161 758.137 177.152C756.995 179.307 755.705 181.479 754.445 183.6C750.75 189.816 746.927 196.245 747.982 200.553Z" stroke="#5B5EAB" stroke-width="17.4438" mask="url(#path-3-outside-1_1812_1167)"/>
<path d="M1613.77 1301.86V1297.5H1609.41H1545.74H1541.38V1301.86V1652.48V1656.84H1545.74H1609.41H1613.77V1652.48V1301.86Z" fill="white" stroke="#5B5EAB" stroke-width="8.7219"/>
<path d="M1625.87 1305.5L1624.56 1306.58L1624.32 1308.26C1620.97 1331.99 1618.64 1347.43 1617.33 1354.68L1615.89 1362.61L1623.32 1359.47C1631.23 1356.13 1642.6 1354.31 1657.71 1354.31H1657.74L1657.77 1354.31L1687.93 1353.87V1652.48V1656.84H1692.29H1755.45H1759.81V1652.48V1353.8H1819.61H1823.97V1349.44V1301.86V1297.5H1819.61H1654.7C1642.55 1297.5 1632.66 1299.91 1625.87 1305.5Z" fill="white" stroke="#5B5EAB" stroke-width="8.7219"/>
<path d="M1359.3 1339.3L1359.3 1339.31L1359.3 1339.31C1243.06 1549.75 1384.37 1812.5 1624.22 1831.19C1757.64 1842.35 1889.71 1764.21 1947.46 1644.51C2006.48 1527.49 1985.34 1381.99 1899.87 1284.22C1749.33 1109.1 1471.43 1136.9 1359.3 1339.3ZM1890.12 1614.6L1890.06 1614.7L1890 1614.81C1840.58 1707.14 1735.17 1760.31 1631.44 1749.22L1631.38 1749.22L1631.32 1749.21C1446.88 1731.18 1336.53 1536.54 1416.74 1369.04C1500.77 1194.17 1740.21 1164.9 1863.87 1314.61L1863.89 1314.63L1863.91 1314.66C1932.85 1397.21 1942.43 1521.04 1890.12 1614.6Z" fill="url(#paint0_linear_1812_1167)" stroke="#5B5EAB" stroke-width="25.2935"/>
<mask id="path-7-outside-2_1812_1167" maskUnits="userSpaceOnUse" x="0" y="294.365" width="2037" height="1658" fill="black">
<rect fill="white" y="294.365" width="2037" height="1658"/>
<path fill-rule="evenodd" clip-rule="evenodd" d="M1906.48 876.605C1876.64 948.688 1910.85 1031.33 1982.9 1061.19C1991.16 1064.61 1999.56 1067.15 2008 1068.93C2002.86 1107.04 1995.53 1144.72 1986.03 1181.87C1941.96 1173.85 1894.82 1186.85 1860.76 1220.93C1858.01 1223.68 1855.44 1226.53 1852.96 1229.45C1815.18 1200.42 1772.49 1180.44 1727.92 1169.5C1752.6 1095.36 1765.98 1016.11 1765.98 933.782C1765.98 774.658 1716.03 626.992 1631.02 505.627L1781.61 344.924C1784.58 343.918 1787.54 342.844 1790.48 341.626C1798.73 338.209 1806.46 334.07 1813.67 329.365C1836.94 359.935 1858.39 391.771 1877.94 424.794C1841.14 450.293 1817.02 492.813 1817.02 540.989C1817.02 619.012 1880.24 682.261 1958.23 682.261C1967.2 682.261 1975.97 681.386 1984.48 679.784C1994.22 716.889 2001.79 754.52 2007.16 792.59C1963.43 802.072 1924.9 832.112 1906.48 876.605ZM1736.71 933.782C1736.71 1012.8 1724.09 1089.91 1699.15 1163.7C1658.67 1157.37 1617.22 1158.33 1577 1166.49C1606.95 1094.81 1623.53 1016.2 1623.53 933.782C1623.53 815.784 1589.57 705.586 1530.97 612.393L1610.78 527.222C1638.06 566.919 1661.31 609.289 1680.25 654.078C1717.71 742.699 1736.71 836.805 1736.71 933.782ZM1018.5 1681.6C606.34 1681.6 271.023 1346.13 271.023 933.782C271.023 776.179 320.011 629.808 403.548 509.105L255.041 350.626C242.566 346.815 230.643 341.307 219.65 334.23C196.57 364.937 175.328 396.905 155.974 430.055C163.107 434.937 169.91 440.51 176.243 446.846C231.388 502.016 231.388 591.465 176.243 646.636C142.176 680.718 95.0374 693.716 50.9741 685.688C41.4682 722.844 34.1419 760.522 29 798.634C37.4406 800.411 45.84 802.952 54.0983 806.374C126.149 836.233 160.364 918.872 130.52 990.955C112.099 1035.45 73.5711 1065.49 29.8386 1074.97C35.2126 1113.04 42.7805 1150.67 52.5187 1187.78C61.0302 1186.18 69.798 1185.3 78.7745 1185.3C156.762 1185.3 219.983 1248.55 219.983 1326.57C219.983 1374.75 195.861 1417.27 159.061 1442.77C178.614 1475.79 200.055 1507.63 223.328 1538.2C230.544 1533.49 238.268 1529.35 246.515 1525.94C318.565 1496.08 401.168 1530.31 431.013 1602.39C449.428 1646.87 443.426 1695.36 419.22 1732.99C449.913 1756.08 481.867 1777.34 515.002 1796.7C519.881 1789.56 525.452 1782.76 531.785 1776.42C586.93 1721.25 676.338 1721.25 731.484 1776.42C765.551 1810.5 778.544 1857.66 770.52 1901.75C807.657 1911.26 845.319 1918.59 883.413 1923.73C885.19 1915.29 887.729 1906.88 891.15 1898.62C920.995 1826.54 1003.6 1792.31 1075.65 1822.16C1120.12 1840.59 1150.15 1879.14 1159.62 1922.89C1197.68 1917.51 1235.29 1909.94 1272.38 1900.2C1270.78 1891.68 1269.91 1882.91 1269.91 1873.93C1269.91 1801.86 1323.87 1742.43 1393.57 1733.78C1362.59 1699.39 1339.08 1659.26 1323.97 1616.27C1230.66 1658.23 1127.26 1681.6 1018.5 1681.6ZM356.752 654.078C375.131 610.606 397.556 569.401 423.8 530.716L503.752 616.037C446.547 708.453 413.469 817.318 413.469 933.782C413.469 1267.55 684.885 1539.08 1018.5 1539.08C1122.42 1539.08 1220.31 1512.73 1305.83 1466.35C1301.71 1507.39 1305.14 1548.7 1315.42 1588.2C1309.68 1590.81 1303.9 1593.36 1298.08 1595.83C1209.5 1633.31 1115.43 1652.32 1018.5 1652.32C921.567 1652.32 827.504 1633.31 738.923 1595.83C653.393 1559.63 576.59 1507.83 510.649 1441.86C444.706 1375.89 392.929 1299.05 356.752 1213.48C319.285 1124.86 300.289 1030.76 300.289 933.782C300.289 836.805 319.285 742.699 356.752 654.078Z"/>
</mask>
<path fill-rule="evenodd" clip-rule="evenodd" d="M1906.48 876.605C1876.64 948.688 1910.85 1031.33 1982.9 1061.19C1991.16 1064.61 1999.56 1067.15 2008 1068.93C2002.86 1107.04 1995.53 1144.72 1986.03 1181.87C1941.96 1173.85 1894.82 1186.85 1860.76 1220.93C1858.01 1223.68 1855.44 1226.53 1852.96 1229.45C1815.18 1200.42 1772.49 1180.44 1727.92 1169.5C1752.6 1095.36 1765.98 1016.11 1765.98 933.782C1765.98 774.658 1716.03 626.992 1631.02 505.627L1781.61 344.924C1784.58 343.918 1787.54 342.844 1790.48 341.626C1798.73 338.209 1806.46 334.07 1813.67 329.365C1836.94 359.935 1858.39 391.771 1877.94 424.794C1841.14 450.293 1817.02 492.813 1817.02 540.989C1817.02 619.012 1880.24 682.261 1958.23 682.261C1967.2 682.261 1975.97 681.386 1984.48 679.784C1994.22 716.889 2001.79 754.52 2007.16 792.59C1963.43 802.072 1924.9 832.112 1906.48 876.605ZM1736.71 933.782C1736.71 1012.8 1724.09 1089.91 1699.15 1163.7C1658.67 1157.37 1617.22 1158.33 1577 1166.49C1606.95 1094.81 1623.53 1016.2 1623.53 933.782C1623.53 815.784 1589.57 705.586 1530.97 612.393L1610.78 527.222C1638.06 566.919 1661.31 609.289 1680.25 654.078C1717.71 742.699 1736.71 836.805 1736.71 933.782ZM1018.5 1681.6C606.34 1681.6 271.023 1346.13 271.023 933.782C271.023 776.179 320.011 629.808 403.548 509.105L255.041 350.626C242.566 346.815 230.643 341.307 219.65 334.23C196.57 364.937 175.328 396.905 155.974 430.055C163.107 434.937 169.91 440.51 176.243 446.846C231.388 502.016 231.388 591.465 176.243 646.636C142.176 680.718 95.0374 693.716 50.9741 685.688C41.4682 722.844 34.1419 760.522 29 798.634C37.4406 800.411 45.84 802.952 54.0983 806.374C126.149 836.233 160.364 918.872 130.52 990.955C112.099 1035.45 73.5711 1065.49 29.8386 1074.97C35.2126 1113.04 42.7805 1150.67 52.5187 1187.78C61.0302 1186.18 69.798 1185.3 78.7745 1185.3C156.762 1185.3 219.983 1248.55 219.983 1326.57C219.983 1374.75 195.861 1417.27 159.061 1442.77C178.614 1475.79 200.055 1507.63 223.328 1538.2C230.544 1533.49 238.268 1529.35 246.515 1525.94C318.565 1496.08 401.168 1530.31 431.013 1602.39C449.428 1646.87 443.426 1695.36 419.22 1732.99C449.913 1756.08 481.867 1777.34 515.002 1796.7C519.881 1789.56 525.452 1782.76 531.785 1776.42C586.93 1721.25 676.338 1721.25 731.484 1776.42C765.551 1810.5 778.544 1857.66 770.52 1901.75C807.657 1911.26 845.319 1918.59 883.413 1923.73C885.19 1915.29 887.729 1906.88 891.15 1898.62C920.995 1826.54 1003.6 1792.31 1075.65 1822.16C1120.12 1840.59 1150.15 1879.14 1159.62 1922.89C1197.68 1917.51 1235.29 1909.94 1272.38 1900.2C1270.78 1891.68 1269.91 1882.91 1269.91 1873.93C1269.91 1801.86 1323.87 1742.43 1393.57 1733.78C1362.59 1699.39 1339.08 1659.26 1323.97 1616.27C1230.66 1658.23 1127.26 1681.6 1018.5 1681.6ZM356.752 654.078C375.131 610.606 397.556 569.401 423.8 530.716L503.752 616.037C446.547 708.453 413.469 817.318 413.469 933.782C413.469 1267.55 684.885 1539.08 1018.5 1539.08C1122.42 1539.08 1220.31 1512.73 1305.83 1466.35C1301.71 1507.39 1305.14 1548.7 1315.42 1588.2C1309.68 1590.81 1303.9 1593.36 1298.08 1595.83C1209.5 1633.31 1115.43 1652.32 1018.5 1652.32C921.567 1652.32 827.504 1633.31 738.923 1595.83C653.393 1559.63 576.59 1507.83 510.649 1441.86C444.706 1375.89 392.929 1299.05 356.752 1213.48C319.285 1124.86 300.289 1030.76 300.289 933.782C300.289 836.805 319.285 742.699 356.752 654.078Z" fill="url(#paint1_linear_1812_1167)"/>
<path d="M1982.9 1061.19L1992.59 1037.82L1992.58 1037.82L1982.9 1061.19ZM1906.48 876.605L1929.85 886.281L1929.85 886.281L1906.48 876.605ZM2008 1068.93L2033.07 1072.31L2036.21 1049.02L2013.21 1044.18L2008 1068.93ZM1986.03 1181.87L1981.49 1206.76L2004.69 1210.98L2010.53 1188.14L1986.03 1181.87ZM1860.76 1220.93L1842.87 1203.05L1842.86 1203.05L1860.76 1220.93ZM1852.96 1229.45L1837.55 1249.5L1856.64 1264.17L1872.23 1245.83L1852.96 1229.45ZM1727.92 1169.5L1703.92 1161.52L1695.26 1187.54L1721.9 1194.07L1727.92 1169.5ZM1631.02 505.627L1612.56 488.332L1598.52 503.318L1610.3 520.139L1631.02 505.627ZM1781.61 344.924L1773.49 320.969L1767.49 323.003L1763.15 327.629L1781.61 344.924ZM1790.48 341.626L1800.16 364.995L1800.17 364.993L1790.48 341.626ZM1813.67 329.365L1833.8 314.044L1819.55 295.334L1799.86 308.178L1813.67 329.365ZM1877.94 424.794L1892.34 445.585L1911.7 432.172L1899.7 411.908L1877.94 424.794ZM1984.48 679.784L2008.95 673.364L2002.96 650.568L1979.8 654.927L1984.48 679.784ZM2007.16 792.59L2012.52 817.31L2035.49 812.329L2032.21 789.055L2007.16 792.59ZM1699.15 1163.7L1695.24 1188.69L1716.29 1191.98L1723.11 1171.8L1699.15 1163.7ZM1577 1166.49L1553.67 1156.74L1535.27 1200.77L1582.04 1191.28L1577 1166.49ZM1530.97 612.393L1512.51 595.097L1499.17 609.337L1509.56 625.857L1530.97 612.393ZM1610.78 527.222L1631.63 512.897L1613.82 486.986L1592.33 509.927L1610.78 527.222ZM1680.25 654.078L1656.95 663.928L1680.25 654.078ZM403.548 509.105L424.346 523.5L435.967 506.71L422.005 491.81L403.548 509.105ZM255.041 350.626L273.498 333.331L268.884 328.408L262.431 326.436L255.041 350.626ZM219.65 334.23L233.34 312.962L213.563 300.231L199.431 319.033L219.65 334.23ZM155.974 430.055L134.131 417.303L122.261 437.633L141.689 450.929L155.974 430.055ZM176.243 446.846L194.132 428.964L194.131 428.963L176.243 446.846ZM176.243 646.636L194.132 664.517L194.132 664.517L176.243 646.636ZM50.9741 685.688L55.5077 660.804L32.3134 656.579L26.4699 679.419L50.9741 685.688ZM29 798.634L3.93358 795.252L0.791348 818.542L23.7886 823.384L29 798.634ZM54.0983 806.374L63.7817 783.008L63.7802 783.007L54.0983 806.374ZM130.52 990.955L107.15 981.28L107.15 981.28L130.52 990.955ZM29.8386 1074.97L24.48 1050.25L1.50801 1055.23L4.79335 1078.51L29.8386 1074.97ZM52.5187 1187.78L28.0537 1194.2L34.0371 1217L57.2006 1212.63L52.5187 1187.78ZM159.061 1442.77L144.656 1421.98L125.298 1435.39L137.297 1455.66L159.061 1442.77ZM223.328 1538.2L203.202 1553.52L217.446 1572.23L237.144 1559.38L223.328 1538.2ZM246.515 1525.94L256.196 1549.3L256.198 1549.3L246.515 1525.94ZM431.013 1602.39L407.643 1612.07L407.643 1612.07L431.013 1602.39ZM419.22 1732.99L397.946 1719.31L385.234 1739.08L404.014 1753.21L419.22 1732.99ZM515.002 1796.7L502.241 1818.54L522.586 1830.43L535.884 1810.97L515.002 1796.7ZM531.785 1776.42L513.896 1758.54L513.895 1758.54L531.785 1776.42ZM731.484 1776.42L749.373 1758.54L731.484 1776.42ZM770.52 1901.75L745.635 1897.22L741.415 1920.4L764.244 1926.25L770.52 1901.75ZM883.413 1923.73L880.029 1948.8L903.324 1951.94L908.164 1928.94L883.413 1923.73ZM891.15 1898.62L867.781 1888.94V1888.94L891.15 1898.62ZM1075.65 1822.16L1085.33 1798.8L1085.33 1798.8L1075.65 1822.16ZM1159.62 1922.89L1134.9 1928.25L1139.88 1951.23L1163.16 1947.94L1159.62 1922.89ZM1272.38 1900.2L1278.81 1924.66L1301.59 1918.68L1297.24 1895.53L1272.38 1900.2ZM1393.57 1733.78L1396.69 1758.89L1444.85 1752.91L1412.36 1716.85L1393.57 1733.78ZM1323.97 1616.27L1347.83 1607.88L1338.7 1581.91L1313.59 1593.2L1323.97 1616.27ZM423.8 530.716L442.256 513.421L420.626 490.338L402.868 516.516L423.8 530.716ZM356.752 654.078L380.049 663.928L380.049 663.928L356.752 654.078ZM503.752 616.037L525.259 629.35L535.455 612.878L522.209 598.742L503.752 616.037ZM1305.83 1466.35L1331 1468.88L1335.77 1421.35L1293.78 1444.12L1305.83 1466.35ZM1315.42 1588.2L1325.88 1611.23L1345.26 1602.43L1339.9 1581.83L1315.42 1588.2ZM1298.08 1595.83L1288.22 1572.53L1288.22 1572.53L1298.08 1595.83ZM738.923 1595.83L748.78 1572.53L748.78 1572.53L738.923 1595.83ZM510.649 1441.86L528.538 1423.98L528.538 1423.98L510.649 1441.86ZM356.752 1213.48L380.049 1203.64L380.049 1203.64L356.752 1213.48ZM1992.58 1037.82C1933.44 1013.31 1905.34 945.467 1929.85 886.281L1883.11 866.929C1847.93 951.909 1888.26 1049.35 1973.22 1084.55L1992.58 1037.82ZM2013.21 1044.18C2006.22 1042.7 1999.32 1040.61 1992.59 1037.82L1973.22 1084.55C1983 1088.61 1992.9 1091.59 2002.78 1093.68L2013.21 1044.18ZM2010.53 1188.14C2020.28 1150.03 2027.79 1111.39 2033.07 1072.31L1982.93 1065.55C1977.92 1102.69 1970.78 1139.41 1961.52 1175.6L2010.53 1188.14ZM1878.65 1238.81C1906.59 1210.85 1945.24 1200.15 1981.49 1206.76L1990.56 1156.99C1938.68 1147.54 1883.06 1162.84 1842.87 1203.05L1878.65 1238.81ZM1872.23 1245.83C1874.4 1243.28 1876.51 1240.95 1878.65 1238.81L1842.86 1203.05C1839.51 1206.41 1836.47 1209.79 1833.69 1213.06L1872.23 1245.83ZM1721.9 1194.07C1763.17 1204.19 1802.64 1222.68 1837.55 1249.5L1868.37 1209.39C1827.73 1178.16 1781.82 1156.68 1733.95 1144.94L1721.9 1194.07ZM1740.68 933.782C1740.68 1013.35 1727.75 1089.91 1703.92 1161.52L1751.92 1177.49C1777.44 1100.81 1791.27 1018.86 1791.27 933.782H1740.68ZM1610.3 520.139C1692.44 637.402 1740.68 780.033 1740.68 933.782H1791.27C1791.27 769.284 1739.62 616.582 1651.74 491.115L1610.3 520.139ZM1763.15 327.629L1612.56 488.332L1649.48 522.922L1800.07 362.22L1763.15 327.629ZM1780.8 318.258C1778.55 319.194 1776.14 320.071 1773.49 320.969L1789.73 368.88C1793.02 367.765 1796.54 366.495 1800.16 364.995L1780.8 318.258ZM1799.86 308.178C1793.88 312.076 1787.53 315.471 1780.8 318.26L1800.17 364.993C1809.93 360.947 1819.03 356.065 1827.49 350.552L1799.86 308.178ZM1899.7 411.908C1879.65 378.04 1857.66 345.391 1833.8 314.044L1793.55 344.686C1816.23 374.479 1837.12 405.501 1856.17 437.681L1899.7 411.908ZM1842.31 540.989C1842.31 501.466 1862.06 466.565 1892.34 445.585L1863.53 404.004C1820.21 434.021 1791.72 484.159 1791.72 540.989H1842.31ZM1958.23 656.968C1894.22 656.968 1842.31 605.053 1842.31 540.989H1791.72C1791.72 632.97 1866.26 707.555 1958.23 707.555V656.968ZM1979.8 654.927C1972.75 656.254 1965.55 656.968 1958.23 656.968V707.555C1968.85 707.555 1979.19 706.519 1989.16 704.641L1979.8 654.927ZM2032.21 789.055C2026.69 750.013 2018.93 711.418 2008.95 673.364L1960.02 686.205C1969.5 722.359 1976.88 759.026 1982.12 796.126L2032.21 789.055ZM1929.85 886.281C1944.96 849.783 1976.54 825.111 2012.52 817.31L2001.8 767.871C1950.32 779.033 1904.84 814.442 1883.11 866.93L1929.85 886.281ZM1723.11 1171.8C1748.95 1095.37 1762 1015.52 1762 933.782H1711.42C1711.42 1010.08 1699.24 1084.45 1675.19 1155.6L1723.11 1171.8ZM1582.04 1191.28C1619.32 1183.71 1657.74 1182.83 1695.24 1188.69L1703.06 1138.71C1659.59 1131.92 1615.12 1132.94 1571.97 1141.7L1582.04 1191.28ZM1598.24 933.782C1598.24 1012.78 1582.35 1088.08 1553.67 1156.74L1600.34 1176.24C1631.56 1101.54 1648.82 1019.62 1648.82 933.782H1598.24ZM1509.56 625.857C1565.71 715.152 1598.24 820.704 1598.24 933.782H1648.82C1648.82 810.863 1613.44 696.02 1552.38 598.928L1509.56 625.857ZM1592.33 509.927L1512.51 595.097L1549.43 629.688L1629.24 544.517L1592.33 509.927ZM1703.54 644.229C1683.94 597.863 1659.87 553.994 1631.63 512.897L1589.94 541.547C1616.25 579.844 1638.68 620.715 1656.95 663.928L1703.54 644.229ZM1762 933.782C1762 833.449 1742.34 735.992 1703.54 644.229L1656.95 663.928C1693.09 749.407 1711.42 840.161 1711.42 933.782H1762ZM245.73 933.782C245.73 1360.09 592.36 1706.89 1018.5 1706.89V1656.3C620.32 1656.3 296.317 1332.17 296.317 933.782H245.73ZM382.75 494.711C296.388 619.495 245.73 770.858 245.73 933.782H296.317C296.317 781.5 343.634 640.121 424.346 523.5L382.75 494.711ZM236.585 367.921L385.092 526.401L422.005 491.81L273.498 333.331L236.585 367.921ZM205.959 355.498C218.927 363.846 232.973 370.332 247.651 374.816L262.431 326.436C252.16 323.298 242.359 318.768 233.34 312.962L205.959 355.498ZM177.817 442.808C196.677 410.503 217.377 379.351 239.869 349.427L199.431 319.033C175.762 350.522 153.978 383.307 134.131 417.303L177.817 442.808ZM194.131 428.963C186.635 421.464 178.615 414.9 170.259 409.182L141.689 450.929C147.6 454.974 153.185 459.556 158.355 464.728L194.131 428.963ZM194.132 664.517C259.15 599.47 259.15 494.011 194.132 428.964L158.354 464.727C203.627 510.02 203.627 583.461 158.354 628.754L194.132 664.517ZM46.4406 710.572C98.3155 720.023 153.941 704.726 194.132 664.517L158.354 628.754C130.412 656.709 91.7593 667.409 55.5077 660.804L46.4406 710.572ZM54.0664 802.016C59.0778 764.871 66.217 728.157 75.4784 691.958L26.4699 679.419C16.7194 717.531 9.20595 756.173 3.93358 795.252L54.0664 802.016ZM63.7802 783.007C54.0051 778.957 44.1029 775.966 34.2114 773.883L23.7886 823.384C30.7783 824.856 37.6749 826.948 44.4165 829.741L63.7802 783.007ZM153.89 1000.63C189.073 915.651 148.741 818.216 63.7817 783.008L44.415 829.741C103.557 854.25 131.655 922.093 107.15 981.28L153.89 1000.63ZM35.1972 1099.69C86.6821 1088.53 132.159 1053.12 153.89 1000.63L107.15 981.28C92.0392 1017.78 60.4602 1042.45 24.48 1050.25L35.1972 1099.69ZM76.9837 1181.36C67.495 1145.2 60.1207 1108.54 54.8838 1071.43L4.79335 1078.51C10.3045 1117.55 18.066 1156.14 28.0537 1194.2L76.9837 1181.36ZM78.7745 1160.01C68.1503 1160.01 57.8145 1161.04 47.8368 1162.92L57.2006 1212.63C64.2458 1211.31 71.4456 1210.59 78.7745 1210.59V1160.01ZM245.276 1326.57C245.276 1234.59 170.742 1160.01 78.7745 1160.01V1210.59C142.782 1210.59 194.689 1262.51 194.689 1326.57H245.276ZM173.467 1463.56C216.787 1433.54 245.276 1383.4 245.276 1326.57H194.689C194.689 1366.1 174.935 1401 144.656 1421.98L173.467 1463.56ZM243.453 1522.88C220.772 1493.08 199.879 1462.06 180.826 1429.88L137.297 1455.66C157.349 1489.52 179.338 1522.17 203.202 1553.52L243.453 1522.88ZM236.834 1502.57C227.067 1506.62 217.964 1511.5 209.512 1517.01L237.144 1559.38C243.124 1555.49 249.469 1552.09 256.196 1549.3L236.834 1502.57ZM454.382 1592.72C419.196 1507.73 321.797 1467.36 236.831 1502.57L256.198 1549.3C315.334 1524.8 383.141 1552.89 407.643 1612.07L454.382 1592.72ZM440.494 1746.68C468.985 1702.37 476.107 1645.19 454.382 1592.72L407.643 1612.07C422.75 1648.56 417.867 1688.34 397.946 1719.31L440.494 1746.68ZM527.764 1774.86C495.474 1755.99 464.336 1735.28 434.426 1712.78L404.014 1753.21C435.489 1776.89 468.26 1798.68 502.241 1818.54L527.764 1774.86ZM513.895 1758.54C506.399 1766.04 499.837 1774.06 494.121 1782.43L535.884 1810.97C539.925 1805.06 544.504 1799.47 549.675 1794.3L513.895 1758.54ZM749.373 1758.54C684.349 1693.49 578.92 1693.48 513.896 1758.54L549.674 1794.3C594.941 1749.01 668.328 1749.01 713.595 1794.3L749.373 1758.54ZM795.404 1906.27C804.849 1854.39 789.564 1798.75 749.373 1758.54L713.595 1794.3C741.538 1822.26 752.239 1860.94 745.635 1897.22L795.404 1906.27ZM886.797 1898.66C849.671 1893.65 812.975 1886.51 776.795 1877.24L764.244 1926.25C802.339 1936 840.966 1943.52 880.029 1948.8L886.797 1898.66ZM867.781 1888.94C863.731 1898.72 860.743 1908.63 858.662 1918.52L908.164 1928.94C909.637 1921.94 911.728 1915.04 914.52 1908.3L867.781 1888.94ZM1085.33 1798.8C1000.37 1763.59 902.967 1803.96 867.781 1888.94L914.52 1908.3C939.022 1849.12 1006.83 1821.03 1065.97 1845.53L1085.33 1798.8ZM1184.35 1917.54C1173.19 1866.04 1137.8 1820.54 1085.33 1798.8L1065.96 1845.53C1102.44 1860.65 1127.11 1892.24 1134.9 1928.25L1184.35 1917.54ZM1265.95 1875.74C1229.82 1885.23 1193.17 1892.61 1156.09 1897.85L1163.16 1947.94C1202.19 1942.42 1240.77 1934.66 1278.81 1924.66L1265.95 1875.74ZM1244.61 1873.93C1244.61 1884.56 1245.65 1894.9 1247.52 1904.87L1297.24 1895.53C1295.91 1888.47 1295.2 1881.27 1295.2 1873.93H1244.61ZM1390.46 1708.68C1308.25 1718.88 1244.61 1788.93 1244.61 1873.93H1295.2C1295.2 1814.78 1339.49 1765.98 1396.69 1758.89L1390.46 1708.68ZM1300.1 1624.66C1316.3 1670.73 1341.5 1713.78 1374.78 1750.72L1412.36 1716.85C1383.67 1685 1361.86 1647.79 1347.83 1607.88L1300.1 1624.66ZM1018.5 1706.89C1130.91 1706.89 1237.84 1682.73 1334.34 1639.33L1313.59 1593.2C1223.47 1633.73 1123.6 1656.3 1018.5 1656.3V1706.89ZM402.868 516.516C375.695 556.572 352.478 599.234 333.455 644.229L380.049 663.928C397.784 621.978 419.417 582.23 444.731 544.915L402.868 516.516ZM522.209 598.742L442.256 513.421L405.343 548.011L485.296 633.332L522.209 598.742ZM438.763 933.782C438.763 822.173 470.449 717.898 525.259 629.35L482.245 602.725C422.646 699.009 388.176 812.464 388.176 933.782H438.763ZM1018.5 1513.79C698.865 1513.79 438.763 1253.59 438.763 933.782H388.176C388.176 1281.51 670.905 1564.38 1018.5 1564.38V1513.79ZM1293.78 1444.12C1211.85 1488.54 1118.1 1513.79 1018.5 1513.79V1564.38C1126.75 1564.38 1228.76 1536.91 1317.89 1488.59L1293.78 1444.12ZM1339.9 1581.83C1330.35 1545.15 1327.19 1506.86 1331 1468.88L1280.67 1463.83C1276.24 1507.93 1279.92 1552.24 1290.94 1594.57L1339.9 1581.83ZM1307.93 1619.12C1314 1616.55 1319.98 1613.91 1325.88 1611.23L1304.96 1565.17C1299.37 1567.71 1293.8 1570.17 1288.22 1572.53L1307.93 1619.12ZM1018.5 1677.61C1118.79 1677.61 1216.21 1657.93 1307.93 1619.12L1288.22 1572.53C1202.78 1608.69 1112.07 1627.02 1018.5 1627.02V1677.61ZM729.066 1619.12C820.79 1657.93 918.208 1677.61 1018.5 1677.61V1627.02C924.926 1627.02 834.217 1608.69 748.78 1572.53L729.066 1619.12ZM492.76 1459.74C560.994 1528.01 640.521 1581.65 729.066 1619.12L748.78 1572.53C666.264 1537.62 592.186 1487.66 528.538 1423.98L492.76 1459.74ZM333.455 1223.33C370.905 1311.92 424.523 1391.48 492.76 1459.74L528.538 1423.98C464.889 1360.31 414.952 1286.19 380.049 1203.64L333.455 1223.33ZM274.995 933.782C274.995 1034.12 294.66 1131.57 333.455 1223.33L380.049 1203.64C343.91 1118.16 325.582 1027.4 325.582 933.782H274.995ZM333.455 644.229C294.66 735.991 274.995 833.449 274.995 933.782H325.582C325.582 840.161 343.911 749.406 380.049 663.928L333.455 644.229Z" fill="#5B5EAB" mask="url(#path-7-outside-2_1812_1167)"/>
<path d="M1363.5 1341.62L1363.5 1341.63C1248.94 1549.02 1388.23 1808 1624.61 1826.41C1756.01 1837.4 1886.25 1760.37 1943.16 1642.39C2001.29 1527.16 1980.5 1383.73 1896.24 1287.37C1747.88 1114.75 1474.01 1142.16 1363.5 1341.62ZM1894.3 1616.94L1894.27 1617.01L1894.23 1617.07C1843.85 1711.2 1736.52 1765.28 1630.93 1753.99L1630.89 1753.99L1630.86 1753.99C1443.11 1735.63 1330.75 1537.48 1412.41 1366.96C1497.96 1188.94 1741.68 1159.14 1867.57 1311.55L1867.58 1311.57L1867.6 1311.58C1937.85 1395.72 1947.55 1521.7 1894.3 1616.94Z" fill="url(#paint2_linear_1812_1167)" stroke="white" stroke-width="15.6994"/>
<mask id="path-10-outside-3_1812_1167" maskUnits="userSpaceOnUse" x="11" y="307.365" width="2015" height="1634" fill="black">
<rect fill="white" x="11" y="307.365" width="2015" height="1634"/>
<path fill-rule="evenodd" clip-rule="evenodd" d="M1906.48 876.605C1876.64 948.688 1910.85 1031.33 1982.9 1061.19C1991.16 1064.61 1999.56 1067.15 2008 1068.93C2002.86 1107.04 1995.53 1144.72 1986.03 1181.87C1941.96 1173.85 1894.82 1186.85 1860.76 1220.93C1858.01 1223.68 1855.44 1226.53 1852.96 1229.45C1815.18 1200.42 1772.49 1180.44 1727.92 1169.5C1752.6 1095.36 1765.98 1016.11 1765.98 933.782C1765.98 774.658 1716.03 626.992 1631.02 505.627L1781.61 344.924C1784.58 343.918 1787.54 342.844 1790.48 341.626C1798.73 338.209 1806.46 334.07 1813.67 329.365C1836.94 359.935 1858.39 391.771 1877.94 424.794C1841.14 450.293 1817.02 492.813 1817.02 540.989C1817.02 619.012 1880.24 682.261 1958.23 682.261C1967.2 682.261 1975.97 681.386 1984.48 679.784C1994.22 716.889 2001.79 754.52 2007.16 792.59C1963.43 802.072 1924.9 832.112 1906.48 876.605ZM1736.71 933.782C1736.71 1012.8 1724.09 1089.91 1699.15 1163.7C1658.67 1157.37 1617.22 1158.33 1577 1166.49C1606.95 1094.81 1623.53 1016.2 1623.53 933.782C1623.53 815.784 1589.57 705.586 1530.97 612.393L1610.78 527.222C1638.06 566.919 1661.31 609.289 1680.25 654.078C1717.71 742.699 1736.71 836.805 1736.71 933.782ZM1018.5 1681.6C606.34 1681.6 271.023 1346.13 271.023 933.782C271.023 776.179 320.011 629.808 403.548 509.105L255.041 350.626C242.566 346.815 230.643 341.307 219.65 334.23C196.57 364.937 175.328 396.905 155.974 430.055C163.107 434.937 169.91 440.51 176.243 446.846C231.388 502.016 231.388 591.465 176.243 646.636C142.176 680.718 95.0374 693.716 50.9741 685.688C41.4682 722.844 34.1419 760.522 29 798.634C37.4406 800.411 45.84 802.952 54.0983 806.374C126.149 836.233 160.364 918.872 130.52 990.955C112.099 1035.45 73.5711 1065.49 29.8386 1074.97C35.2126 1113.04 42.7805 1150.67 52.5187 1187.78C61.0302 1186.18 69.798 1185.3 78.7745 1185.3C156.762 1185.3 219.983 1248.55 219.983 1326.57C219.983 1374.75 195.861 1417.27 159.061 1442.77C178.614 1475.79 200.055 1507.63 223.328 1538.2C230.544 1533.49 238.268 1529.35 246.515 1525.94C318.565 1496.08 401.168 1530.31 431.013 1602.39C449.428 1646.87 443.426 1695.36 419.22 1732.99C449.913 1756.08 481.867 1777.34 515.002 1796.7C519.881 1789.56 525.452 1782.76 531.785 1776.42C586.93 1721.25 676.338 1721.25 731.484 1776.42C765.551 1810.5 778.544 1857.66 770.52 1901.75C807.657 1911.26 845.319 1918.59 883.413 1923.73C885.19 1915.29 887.729 1906.88 891.15 1898.62C920.995 1826.54 1003.6 1792.31 1075.65 1822.16C1120.12 1840.59 1150.15 1879.14 1159.62 1922.89C1197.68 1917.51 1235.29 1909.94 1272.38 1900.2C1270.78 1891.68 1269.91 1882.91 1269.91 1873.93C1269.91 1801.86 1323.87 1742.43 1393.57 1733.78C1362.59 1699.39 1339.08 1659.26 1323.97 1616.27C1230.66 1658.23 1127.26 1681.6 1018.5 1681.6ZM356.752 654.078C375.131 610.606 397.556 569.401 423.8 530.716L503.752 616.037C446.547 708.453 413.469 817.318 413.469 933.782C413.469 1267.55 684.885 1539.08 1018.5 1539.08C1122.42 1539.08 1220.31 1512.73 1305.83 1466.35C1301.71 1507.39 1305.14 1548.7 1315.42 1588.2C1309.68 1590.81 1303.9 1593.36 1298.08 1595.83C1209.5 1633.31 1115.43 1652.32 1018.5 1652.32C921.567 1652.32 827.504 1633.31 738.923 1595.83C653.393 1559.63 576.59 1507.83 510.649 1441.86C444.706 1375.89 392.929 1299.05 356.752 1213.48C319.285 1124.86 300.289 1030.76 300.289 933.782C300.289 836.805 319.285 742.699 356.752 654.078Z"/>
</mask>
<path fill-rule="evenodd" clip-rule="evenodd" d="M1906.48 876.605C1876.64 948.688 1910.85 1031.33 1982.9 1061.19C1991.16 1064.61 1999.56 1067.15 2008 1068.93C2002.86 1107.04 1995.53 1144.72 1986.03 1181.87C1941.96 1173.85 1894.82 1186.85 1860.76 1220.93C1858.01 1223.68 1855.44 1226.53 1852.96 1229.45C1815.18 1200.42 1772.49 1180.44 1727.92 1169.5C1752.6 1095.36 1765.98 1016.11 1765.98 933.782C1765.98 774.658 1716.03 626.992 1631.02 505.627L1781.61 344.924C1784.58 343.918 1787.54 342.844 1790.48 341.626C1798.73 338.209 1806.46 334.07 1813.67 329.365C1836.94 359.935 1858.39 391.771 1877.94 424.794C1841.14 450.293 1817.02 492.813 1817.02 540.989C1817.02 619.012 1880.24 682.261 1958.23 682.261C1967.2 682.261 1975.97 681.386 1984.48 679.784C1994.22 716.889 2001.79 754.52 2007.16 792.59C1963.43 802.072 1924.9 832.112 1906.48 876.605ZM1736.71 933.782C1736.71 1012.8 1724.09 1089.91 1699.15 1163.7C1658.67 1157.37 1617.22 1158.33 1577 1166.49C1606.95 1094.81 1623.53 1016.2 1623.53 933.782C1623.53 815.784 1589.57 705.586 1530.97 612.393L1610.78 527.222C1638.06 566.919 1661.31 609.289 1680.25 654.078C1717.71 742.699 1736.71 836.805 1736.71 933.782ZM1018.5 1681.6C606.34 1681.6 271.023 1346.13 271.023 933.782C271.023 776.179 320.011 629.808 403.548 509.105L255.041 350.626C242.566 346.815 230.643 341.307 219.65 334.23C196.57 364.937 175.328 396.905 155.974 430.055C163.107 434.937 169.91 440.51 176.243 446.846C231.388 502.016 231.388 591.465 176.243 646.636C142.176 680.718 95.0374 693.716 50.9741 685.688C41.4682 722.844 34.1419 760.522 29 798.634C37.4406 800.411 45.84 802.952 54.0983 806.374C126.149 836.233 160.364 918.872 130.52 990.955C112.099 1035.45 73.5711 1065.49 29.8386 1074.97C35.2126 1113.04 42.7805 1150.67 52.5187 1187.78C61.0302 1186.18 69.798 1185.3 78.7745 1185.3C156.762 1185.3 219.983 1248.55 219.983 1326.57C219.983 1374.75 195.861 1417.27 159.061 1442.77C178.614 1475.79 200.055 1507.63 223.328 1538.2C230.544 1533.49 238.268 1529.35 246.515 1525.94C318.565 1496.08 401.168 1530.31 431.013 1602.39C449.428 1646.87 443.426 1695.36 419.22 1732.99C449.913 1756.08 481.867 1777.34 515.002 1796.7C519.881 1789.56 525.452 1782.76 531.785 1776.42C586.93 1721.25 676.338 1721.25 731.484 1776.42C765.551 1810.5 778.544 1857.66 770.52 1901.75C807.657 1911.26 845.319 1918.59 883.413 1923.73C885.19 1915.29 887.729 1906.88 891.15 1898.62C920.995 1826.54 1003.6 1792.31 1075.65 1822.16C1120.12 1840.59 1150.15 1879.14 1159.62 1922.89C1197.68 1917.51 1235.29 1909.94 1272.38 1900.2C1270.78 1891.68 1269.91 1882.91 1269.91 1873.93C1269.91 1801.86 1323.87 1742.43 1393.57 1733.78C1362.59 1699.39 1339.08 1659.26 1323.97 1616.27C1230.66 1658.23 1127.26 1681.6 1018.5 1681.6ZM356.752 654.078C375.131 610.606 397.556 569.401 423.8 530.716L503.752 616.037C446.547 708.453 413.469 817.318 413.469 933.782C413.469 1267.55 684.885 1539.08 1018.5 1539.08C1122.42 1539.08 1220.31 1512.73 1305.83 1466.35C1301.71 1507.39 1305.14 1548.7 1315.42 1588.2C1309.68 1590.81 1303.9 1593.36 1298.08 1595.83C1209.5 1633.31 1115.43 1652.32 1018.5 1652.32C921.567 1652.32 827.504 1633.31 738.923 1595.83C653.393 1559.63 576.59 1507.83 510.649 1441.86C444.706 1375.89 392.929 1299.05 356.752 1213.48C319.285 1124.86 300.289 1030.76 300.289 933.782C300.289 836.805 319.285 742.699 356.752 654.078Z" fill="url(#paint3_linear_1812_1167)"/>
<path d="M1982.9 1061.19L1988.91 1046.68L1988.91 1046.68L1982.9 1061.19ZM1906.48 876.605L1920.99 882.611V882.611L1906.48 876.605ZM2008 1068.93L2023.56 1071.03L2025.51 1056.57L2011.24 1053.57L2008 1068.93ZM1986.03 1181.87L1983.21 1197.32L1997.61 1199.94L2001.23 1185.76L1986.03 1181.87ZM1860.76 1220.93L1849.65 1209.83L1849.65 1209.83L1860.76 1220.93ZM1852.96 1229.45L1843.39 1241.89L1855.24 1251L1864.92 1239.61L1852.96 1229.45ZM1727.92 1169.5L1713.03 1164.55L1707.65 1180.7L1724.18 1184.75L1727.92 1169.5ZM1631.02 505.627L1619.56 494.892L1610.85 504.194L1618.16 514.634L1631.02 505.627ZM1781.61 344.924L1776.57 330.055L1772.84 331.318L1770.15 334.19L1781.61 344.924ZM1790.48 341.626L1796.49 356.131L1796.49 356.13L1790.48 341.626ZM1813.67 329.365L1826.16 319.855L1817.32 308.242L1805.1 316.214L1813.67 329.365ZM1877.94 424.794L1886.88 437.699L1898.89 429.374L1891.45 416.796L1877.94 424.794ZM1984.48 679.784L1999.67 675.799L1995.95 661.65L1981.58 664.356L1984.48 679.784ZM2007.16 792.59L2010.49 807.933L2024.75 804.842L2022.71 790.396L2007.16 792.59ZM1699.15 1163.7L1696.73 1179.21L1709.79 1181.25L1714.02 1168.73L1699.15 1163.7ZM1577 1166.49L1562.52 1160.44L1551.1 1187.77L1580.13 1181.88L1577 1166.49ZM1530.97 612.393L1519.51 601.658L1511.23 610.496L1517.68 620.75L1530.97 612.393ZM1610.78 527.222L1623.72 518.331L1612.67 502.248L1599.33 516.487L1610.78 527.222ZM1680.25 654.078L1665.79 660.192L1680.25 654.078ZM403.548 509.105L416.457 518.04L423.67 507.619L415.004 498.371L403.548 509.105ZM255.041 350.626L266.497 339.891L263.633 336.835L259.628 335.612L255.041 350.626ZM219.65 334.23L228.147 321.029L215.872 313.127L207.1 324.797L219.65 334.23ZM155.974 430.055L142.416 422.14L135.049 434.759L147.107 443.011L155.974 430.055ZM176.243 446.846L187.347 435.747L187.346 435.746L176.243 446.846ZM176.243 646.636L187.347 657.734L187.347 657.734L176.243 646.636ZM50.9741 685.688L53.7881 670.243L39.3916 667.62L35.7646 681.797L50.9741 685.688ZM29 798.634L13.4415 796.535L11.4912 810.991L25.7653 813.996L29 798.634ZM54.0983 806.374L60.1087 791.871L60.1078 791.87L54.0983 806.374ZM130.52 990.955L116.015 984.95H116.015L130.52 990.955ZM29.8386 1074.97L26.5125 1059.63L12.2541 1062.72L14.2933 1077.16L29.8386 1074.97ZM52.5187 1187.78L37.3335 1191.76L41.0474 1205.91L55.4247 1203.21L52.5187 1187.78ZM159.061 1442.77L150.12 1429.86L138.105 1438.19L145.552 1450.77L159.061 1442.77ZM223.328 1538.2L210.836 1547.71L219.677 1559.32L231.903 1551.35L223.328 1538.2ZM246.515 1525.94L252.524 1540.44L252.525 1540.44L246.515 1525.94ZM431.013 1602.39L416.507 1608.4L416.507 1608.4L431.013 1602.39ZM419.22 1732.99L406.015 1724.5L398.125 1736.77L409.782 1745.54L419.22 1732.99ZM515.002 1796.7L507.082 1810.25L519.71 1817.63L527.963 1805.56L515.002 1796.7ZM531.785 1776.42L520.681 1765.32L520.681 1765.32L531.785 1776.42ZM731.484 1776.42L742.588 1765.32V1765.32L731.484 1776.42ZM770.52 1901.75L755.074 1898.93L752.455 1913.32L766.625 1916.95L770.52 1901.75ZM883.413 1923.73L881.312 1939.29L895.771 1941.24L898.776 1926.96L883.413 1923.73ZM891.15 1898.62L876.645 1892.61L891.15 1898.62ZM1075.65 1822.16L1081.66 1807.66L1081.66 1807.66L1075.65 1822.16ZM1159.62 1922.89L1144.28 1926.21L1147.37 1940.48L1161.82 1938.44L1159.62 1922.89ZM1272.38 1900.2L1276.37 1915.38L1290.51 1911.67L1287.81 1897.3L1272.38 1900.2ZM1393.57 1733.78L1395.5 1749.36L1425.4 1745.66L1405.23 1723.28L1393.57 1733.78ZM1323.97 1616.27L1338.78 1611.06L1333.11 1594.94L1317.53 1601.95L1323.97 1616.27ZM423.8 530.716L435.255 519.981L421.83 505.654L410.808 521.902L423.8 530.716ZM356.752 654.078L371.212 660.192L371.212 660.192L356.752 654.078ZM503.752 616.037L517.101 624.3L523.43 614.076L515.208 605.302L503.752 616.037ZM1305.83 1466.35L1321.45 1467.92L1324.42 1438.42L1298.35 1452.55L1305.83 1466.35ZM1315.42 1588.2L1321.91 1602.5L1333.94 1597.03L1330.61 1584.25L1315.42 1588.2ZM1298.08 1595.83L1291.96 1581.37L1291.96 1581.37L1298.08 1595.83ZM738.923 1595.83L745.041 1581.37H745.041L738.923 1595.83ZM510.649 1441.86L521.752 1430.76L521.752 1430.76L510.649 1441.86ZM356.752 1213.48L371.212 1207.37L371.212 1207.37L356.752 1213.48ZM1988.91 1046.68C1924.87 1020.15 1894.46 946.689 1920.99 882.611L1891.97 870.599C1858.82 950.687 1896.83 1042.51 1976.89 1075.69L1988.91 1046.68ZM2011.24 1053.57C2003.69 1051.98 1996.23 1049.71 1988.91 1046.68L1976.89 1075.69C1986.09 1079.5 1995.42 1082.32 2004.76 1084.29L2011.24 1053.57ZM2001.23 1185.76C2010.89 1148.02 2018.34 1109.74 2023.56 1071.03L1992.44 1066.83C1987.38 1104.34 1980.17 1141.42 1970.82 1177.98L2001.23 1185.76ZM1871.86 1232.03C1902.13 1201.75 1944 1190.18 1983.21 1197.32L1988.84 1166.43C1939.93 1157.52 1887.52 1171.94 1849.65 1209.83L1871.86 1232.03ZM1864.92 1239.61C1867.21 1236.93 1869.49 1234.4 1871.86 1232.02L1849.65 1209.83C1846.53 1212.96 1843.66 1216.14 1841 1219.28L1864.92 1239.61ZM1724.18 1184.75C1766.7 1195.18 1807.4 1214.23 1843.39 1241.89L1862.53 1217C1822.97 1186.6 1778.28 1165.69 1731.66 1154.26L1724.18 1184.75ZM1750.28 933.782C1750.28 1014.4 1737.18 1091.98 1713.03 1164.55L1742.82 1174.46C1768.02 1098.75 1781.68 1017.82 1781.68 933.782H1750.28ZM1618.16 514.634C1701.39 633.453 1750.28 777.994 1750.28 933.782H1781.68C1781.68 771.323 1730.67 620.53 1643.88 496.62L1618.16 514.634ZM1770.15 334.19L1619.56 494.892L1642.47 516.362L1793.07 355.659L1770.15 334.19ZM1784.48 327.122C1781.96 328.165 1779.34 329.117 1776.57 330.055L1786.65 359.794C1789.82 358.719 1793.13 357.524 1796.49 356.131L1784.48 327.122ZM1805.1 316.214C1798.65 320.419 1791.78 324.095 1784.47 327.123L1796.49 356.13C1805.68 352.322 1814.26 347.722 1822.25 342.516L1805.1 316.214ZM1891.45 416.796C1871.58 383.248 1849.8 350.908 1826.16 319.855L1801.18 338.875C1824.08 368.962 1845.19 400.293 1864.43 432.793L1891.45 416.796ZM1832.72 540.989C1832.72 498.184 1854.13 460.393 1886.88 437.699L1869 411.89C1828.15 440.193 1801.32 487.442 1801.32 540.989H1832.72ZM1958.23 666.562C1888.92 666.562 1832.72 610.348 1832.72 540.989H1801.32C1801.32 627.676 1871.56 697.961 1958.23 697.961V666.562ZM1981.58 664.356C1973.97 665.787 1966.18 666.562 1958.23 666.562V697.961C1968.23 697.961 1977.97 696.986 1987.39 695.213L1981.58 664.356ZM2022.71 790.396C2017.25 751.723 2009.56 713.493 1999.67 675.799L1969.3 683.77C1978.88 720.284 1986.33 757.317 1991.62 794.785L2022.71 790.396ZM1920.99 882.611C1937.35 843.08 1971.57 816.372 2010.49 807.933L2003.83 777.248C1955.29 787.772 1912.45 821.144 1891.97 870.6L1920.99 882.611ZM1714.02 1168.73C1739.52 1093.3 1752.41 1014.49 1752.41 933.782H1721.01C1721.01 1011.11 1708.66 1086.52 1684.28 1158.67L1714.02 1168.73ZM1580.13 1181.88C1618.52 1174.08 1658.09 1173.17 1696.73 1179.21L1701.58 1148.19C1659.24 1141.57 1615.92 1142.57 1573.88 1151.1L1580.13 1181.88ZM1607.83 933.782C1607.83 1014.08 1591.69 1090.64 1562.52 1160.44L1591.49 1172.54C1622.22 1098.99 1639.23 1018.32 1639.23 933.782H1607.83ZM1517.68 620.75C1574.76 711.523 1607.83 818.837 1607.83 933.782H1639.23C1639.23 812.73 1604.39 699.649 1544.26 604.035L1517.68 620.75ZM1599.33 516.487L1519.51 601.658L1542.43 623.128L1622.24 537.957L1599.33 516.487ZM1694.71 647.965C1675.36 602.197 1651.6 558.897 1623.72 518.331L1597.84 536.113C1624.52 574.941 1647.27 616.381 1665.79 660.192L1694.71 647.965ZM1752.41 933.782C1752.41 834.722 1733 738.536 1694.71 647.965L1665.79 660.192C1702.43 746.862 1721.01 838.888 1721.01 933.782H1752.41ZM255.324 933.782C255.324 1354.79 597.663 1697.3 1018.5 1697.3V1665.9C615.017 1665.9 286.723 1337.46 286.723 933.782H255.324ZM390.639 500.171C305.348 623.407 255.324 772.877 255.324 933.782H286.723C286.723 779.482 334.673 636.209 416.457 518.04L390.639 500.171ZM243.585 361.361L392.092 519.84L415.004 498.371L266.497 339.891L243.585 361.361ZM211.152 347.431C223.371 355.297 236.612 361.412 250.454 365.641L259.628 335.612C248.521 332.219 237.915 327.317 228.147 321.029L211.152 347.431ZM169.532 437.971C188.579 405.345 209.484 373.884 232.199 343.663L207.1 324.797C183.655 355.99 162.076 388.465 142.416 422.14L169.532 437.971ZM187.346 435.746C180.291 428.688 172.733 422.5 164.84 417.099L147.107 443.011C153.482 447.374 159.529 452.331 165.14 457.945L187.346 435.746ZM187.347 657.734C248.62 596.434 248.62 497.048 187.347 435.747L165.139 457.944C214.157 506.984 214.157 586.497 165.139 635.537L187.347 657.734ZM48.1602 701.134C97.0721 710.045 149.478 695.619 187.347 657.734L165.139 635.537C134.874 665.816 93.0027 677.388 53.7881 670.243L48.1602 701.134ZM44.5585 800.733C49.6193 763.221 56.8295 726.142 66.1837 689.58L35.7646 681.797C26.1069 719.546 18.6644 757.822 13.4415 796.535L44.5585 800.733ZM60.1078 791.87C50.908 788.059 41.5758 785.238 32.2347 783.271L25.7653 813.996C33.3054 815.584 40.772 817.846 48.0889 820.878L60.1078 791.87ZM145.025 996.961C178.184 916.873 140.172 825.05 60.1087 791.871L48.088 820.877C112.126 847.416 142.544 920.872 116.015 984.95L145.025 996.961ZM33.1646 1090.31C81.7089 1079.79 124.55 1046.42 145.025 996.961L116.015 984.95C99.6481 1024.48 65.4333 1051.19 26.5125 1059.63L33.1646 1090.31ZM67.7038 1183.79C58.1205 1147.28 50.6728 1110.24 45.3839 1072.78L14.2933 1077.16C19.7524 1115.84 27.4405 1154.07 37.3335 1191.76L67.7038 1183.79ZM78.7745 1169.6C68.7753 1169.6 59.0343 1170.58 49.6127 1172.35L55.4247 1203.21C63.0261 1201.77 70.8206 1201 78.7745 1201V1169.6ZM235.682 1326.57C235.682 1239.89 165.439 1169.6 78.7745 1169.6V1201C148.084 1201 204.284 1257.21 204.284 1326.57H235.682ZM168.003 1455.67C208.85 1427.37 235.682 1380.12 235.682 1326.57H204.284C204.284 1369.38 182.873 1407.17 150.12 1429.86L168.003 1455.67ZM235.819 1528.69C212.914 1498.6 191.813 1467.27 172.57 1434.77L145.552 1450.77C165.415 1484.31 187.196 1516.65 210.836 1547.71L235.819 1528.69ZM240.506 1511.43C231.316 1515.24 222.735 1519.84 214.752 1525.05L231.903 1551.35C238.352 1547.14 245.22 1543.47 252.524 1540.44L240.506 1511.43ZM445.518 1596.39C412.358 1516.29 320.571 1478.25 240.504 1511.43L252.525 1540.44C316.56 1513.9 389.979 1544.32 416.507 1608.4L445.518 1596.39ZM432.424 1741.49C459.29 1699.71 465.987 1645.83 445.518 1596.39L416.507 1608.4C432.869 1647.92 427.561 1691 406.015 1724.5L432.424 1741.49ZM522.923 1783.14C490.313 1764.09 458.865 1743.17 428.658 1720.45L409.782 1745.54C440.96 1768.99 473.421 1790.58 507.082 1810.25L522.923 1783.14ZM520.681 1765.32C513.626 1772.38 507.44 1779.94 502.042 1787.84L527.963 1805.56C532.322 1799.18 537.277 1793.13 542.889 1787.52L520.681 1765.32ZM742.588 1765.32C681.31 1704.02 581.958 1704.02 520.681 1765.32L542.889 1787.52C591.902 1738.48 671.366 1738.48 720.38 1787.52L742.588 1765.32ZM785.966 1904.56C794.871 1855.63 780.455 1803.21 742.588 1765.32L720.38 1787.52C750.646 1817.8 762.217 1859.69 755.074 1898.93L785.966 1904.56ZM885.514 1908.17C848.02 1903.11 810.958 1895.9 774.415 1886.54L766.625 1916.95C804.356 1926.62 842.617 1934.06 881.312 1939.29L885.514 1908.17ZM876.645 1892.61C872.834 1901.82 870.016 1911.15 868.05 1920.5L898.776 1926.96C900.364 1919.42 902.625 1911.95 905.656 1904.63L876.645 1892.61ZM1081.66 1807.66C1001.59 1774.48 909.805 1812.52 876.645 1892.61L905.656 1904.63C932.184 1840.55 1005.6 1810.13 1069.64 1836.67L1081.66 1807.66ZM1174.97 1919.57C1164.45 1871.01 1131.1 1828.15 1081.66 1807.66L1069.64 1836.67C1109.15 1853.04 1135.85 1887.27 1144.28 1926.21L1174.97 1919.57ZM1268.39 1885.02C1231.9 1894.6 1194.88 1902.05 1157.43 1907.35L1161.82 1938.44C1200.48 1932.97 1238.69 1925.28 1276.37 1915.38L1268.39 1885.02ZM1254.21 1873.93C1254.21 1883.94 1255.18 1893.68 1256.95 1903.1L1287.81 1897.3C1286.38 1889.69 1285.61 1881.89 1285.61 1873.93H1254.21ZM1391.64 1718.2C1314.17 1727.82 1254.21 1793.83 1254.21 1873.93H1285.61C1285.61 1809.88 1333.56 1757.05 1395.5 1749.36L1391.64 1718.2ZM1309.16 1621.47C1324.94 1666.38 1349.5 1708.33 1381.91 1744.29L1405.23 1723.28C1375.67 1690.46 1353.22 1652.14 1338.78 1611.06L1309.16 1621.47ZM1018.5 1697.3C1129.53 1697.3 1235.12 1673.44 1330.41 1630.58L1317.53 1601.95C1226.2 1643.02 1124.99 1665.9 1018.5 1665.9V1697.3ZM410.808 521.902C383.987 561.438 361.07 603.548 342.292 647.965L371.212 660.192C389.192 617.665 411.125 577.364 436.792 539.529L410.808 521.902ZM515.208 605.302L435.255 519.981L412.344 541.451L492.296 626.772L515.208 605.302ZM429.168 933.782C429.168 820.332 461.383 714.315 517.101 624.3L490.403 607.774C431.712 702.592 397.77 814.305 397.77 933.782H429.168ZM1018.5 1523.39C693.562 1523.39 429.168 1258.88 429.168 933.782H397.77C397.77 1276.21 676.208 1554.78 1018.5 1554.78V1523.39ZM1298.35 1452.55C1215.06 1497.71 1119.74 1523.39 1018.5 1523.39V1554.78C1125.11 1554.78 1225.55 1527.74 1313.32 1480.16L1298.35 1452.55ZM1330.61 1584.25C1320.79 1546.49 1317.52 1507.06 1321.45 1467.92L1290.21 1464.79C1285.9 1507.72 1289.49 1550.9 1300.23 1592.16L1330.61 1584.25ZM1304.19 1610.28C1310.17 1607.76 1316.07 1605.15 1321.91 1602.5L1308.93 1573.91C1303.28 1576.47 1297.63 1578.97 1291.96 1581.37L1304.19 1610.28ZM1018.5 1668.02C1117.52 1668.02 1213.66 1648.59 1304.19 1610.28L1291.96 1581.37C1205.33 1618.03 1113.35 1636.62 1018.5 1636.62V1668.02ZM732.805 1610.28C823.337 1648.59 919.482 1668.02 1018.5 1668.02V1636.62C923.652 1636.62 831.671 1618.03 745.041 1581.37L732.805 1610.28ZM499.545 1452.96C566.91 1520.36 645.403 1573.3 732.805 1610.28L745.041 1581.37C661.382 1545.97 586.27 1495.31 521.752 1430.76L499.545 1452.96ZM342.292 1219.6C379.259 1307.04 432.179 1385.57 499.545 1452.96L521.752 1430.76C457.233 1366.22 406.598 1291.07 371.212 1207.37L342.292 1219.6ZM284.589 933.782C284.589 1032.84 304 1129.03 342.292 1219.6L371.212 1207.37C334.57 1120.7 315.988 1028.68 315.988 933.782H284.589ZM342.292 647.965C304 738.536 284.589 834.722 284.589 933.782H315.988C315.988 838.888 334.57 746.862 371.212 660.192L342.292 647.965Z" fill="white" mask="url(#path-10-outside-3_1812_1167)"/>
<mask id="path-12-outside-4_1812_1167" maskUnits="userSpaceOnUse" x="362.971" y="0.270996" width="1305" height="1241" fill="black">
<rect fill="white" x="362.971" y="0.270996" width="1305" height="1241"/>
<path d="M375.329 273.727C369.651 265.956 371.345 255.052 379.113 249.371L526.249 141.769C534.017 136.088 544.917 137.782 550.595 145.554L579.096 184.56C584.774 192.332 583.08 203.237 575.312 208.917L498.081 265.395C490.313 271.076 488.619 281.982 494.297 289.753L500.924 298.823C506.602 306.594 517.503 308.289 525.27 302.608L577.034 264.754C584.801 259.074 595.701 260.767 601.379 268.539L631.152 309.289C636.831 317.06 635.137 327.965 627.369 333.646L575.607 371.5C567.84 377.181 566.146 388.085 571.824 395.856L616.547 457.067C622.225 464.839 620.53 475.743 612.762 481.424L570.983 511.977C563.215 517.657 552.316 515.962 546.637 508.191L375.329 273.727ZM974.765 334.192L1027.32 336.746C1036.93 337.213 1045.1 329.797 1045.56 320.182L1049.64 236.305C1050.46 219.39 1072.47 213.464 1081.67 227.683L1151.39 335.503C1154.43 340.216 1159.56 343.172 1165.17 343.444L1215.94 345.915C1225.55 346.381 1233.72 338.966 1234.19 329.351L1248.27 39.2664C1248.74 29.652 1241.33 21.4785 1231.72 21.012L1179.16 18.4589C1169.55 17.9924 1161.38 25.4081 1160.92 35.0224L1156.82 119.398C1156 136.309 1134 142.238 1124.8 128.028L1054.66 19.6717C1051.62 14.9625 1046.49 12.0086 1040.88 11.7367L990.541 9.29186C980.93 8.82531 972.761 16.241 972.294 25.8553L958.209 315.936C957.742 325.551 965.155 333.724 974.765 334.192ZM1302.3 347.295L1471.45 111.264C1477.05 103.442 1487.94 101.646 1495.76 107.255L1591.24 175.746C1609.28 188.683 1624.01 204.556 1635.02 222.92C1645.95 241.171 1653.24 260.704 1656.69 280.982C1660.15 301.304 1659.63 322.254 1655.17 343.257C1650.67 364.417 1641.74 384.412 1628.64 402.692C1615.7 420.742 1599.84 435.478 1581.48 446.489C1563.26 457.413 1543.71 464.763 1523.38 468.337C1516.37 469.57 1509.29 470.319 1502.17 470.584C1488.54 471.095 1474.77 469.837 1461 466.813C1439.98 462.197 1420.06 453.21 1401.79 440.104L1306.31 371.616C1298.49 366.007 1296.69 355.118 1302.3 347.295ZM1427.09 353.245L1447.98 368.233C1456.53 374.362 1465.88 378.587 1475.79 380.785C1485.77 383.009 1495.7 383.333 1505.28 381.759C1514.84 380.18 1524.13 376.685 1532.9 371.368C1541.58 366.092 1549.17 358.968 1555.45 350.199C1561.57 341.664 1565.79 332.301 1568 322.369C1570.23 312.343 1570.59 302.323 1569.08 292.595C1567.57 282.941 1564.13 273.619 1558.84 264.897C1553.56 256.208 1546.56 248.697 1538.03 242.58L1517.13 227.591C1509.31 221.983 1498.43 223.777 1492.82 231.6L1423.08 328.923C1417.47 336.746 1419.27 347.637 1427.09 353.245ZM706.882 34.1964L706.088 31.6549L721.011 24.4312L722.474 26.8078C723.469 28.4239 724.556 29.9949 725.71 31.6575C728.29 35.3821 730.959 39.2355 732.492 43.6341C734.735 50.069 736.552 56.7656 738.308 63.2417C741.318 74.3395 744.431 85.8174 749.694 95.7462C757.164 109.843 768.992 130.112 785.389 143.323C815.876 167.895 819.174 189.369 797.153 219.91C793.29 225.265 791.518 228.574 791.884 229.744C794.673 237.717 796.998 246.013 799.245 254.035C808.312 286.386 816.875 316.942 854.625 332.157C872.716 339.452 885.296 354.14 889.138 372.46C893.316 392.381 886.606 413.693 871.186 429.475C862.43 438.433 861.018 444.806 865.14 456.753C879.926 499.603 894.797 543.224 909.178 585.41C940.656 677.753 973.206 773.243 1006.9 866.535C1013.5 884.811 1028.8 900.742 1043.6 916.151C1047.26 919.967 1051.05 923.912 1054.6 927.796C1071.54 946.301 1078.44 969.785 1073.58 990.746C1075.42 992.473 1077.32 994.072 1079.32 995.483C1115.1 1020.83 1103.97 1015.68 1139.84 1039.68C1157.43 1051.45 1166.69 1066.32 1184.5 1078.4C1191.39 1083.07 1194.92 1083.78 1202.25 1078.82C1220.06 1066.75 1240.43 1064.24 1258.14 1071.93C1276.04 1079.71 1288.26 1096.55 1291.67 1118.15C1294.76 1137.72 1302.8 1151.4 1316.99 1161.18C1333.04 1172.25 1349.11 1183.83 1364.65 1195.02C1370.28 1199.07 1375.91 1203.12 1381.54 1207.16C1384.49 1209.27 1387.4 1211.5 1390.21 1213.65C1391.5 1214.64 1392.8 1215.63 1394.09 1216.6L1397.07 1218.85L1390.67 1229.34L1387.29 1227.67C1385.84 1226.95 1384.38 1226.25 1382.92 1225.54C1379.72 1224.01 1376.41 1222.41 1373.2 1220.64C1360.38 1213.58 1347.57 1206.49 1334.77 1199.39C1323.99 1193.41 1313.21 1187.44 1302.41 1181.48C1287.46 1173.23 1272.73 1172.01 1256.07 1177.64C1234.96 1184.76 1214.23 1181.9 1199.19 1169.76C1183.49 1157.1 1176.01 1136.29 1178.66 1112.67C1179.01 1109.58 1176.36 1103.68 1174.01 1102.32L1170.49 1100.27C1114.07 1067.51 1112.89 1060.92 1054.57 1029.38C1052.99 1028.52 1051.32 1027.78 1049.59 1027.11C1039.19 1034.89 1026.57 1039.38 1013.34 1039.38C1012.91 1039.38 1012.48 1039.37 1012.05 1039.36C983.42 1038.73 962.82 1024.98 954.046 1000.63C950.254 990.112 950.788 978.154 951.305 966.594C951.468 962.952 951.636 959.186 951.656 955.597C951.705 946.405 952.533 936.944 953.332 927.794C954.896 909.921 956.512 891.437 952.175 875.122C926.685 779.229 899.055 682.174 872.334 588.316C861.042 548.651 849.364 507.637 838.006 467.259C834.379 454.362 830.619 448.572 816.72 446.088C795.388 442.28 778.572 429.533 770.582 411.109C762.688 392.91 764.84 372.173 776.482 354.215C797.778 321.371 787.471 292.321 776.557 261.564C773.669 253.428 770.684 245.013 768.367 236.605C767.702 235.104 761.121 233.122 757.958 232.169C756.376 231.692 754.847 231.23 753.5 230.762C738.392 225.504 726.323 214.861 721.21 202.289C717.316 192.713 717.681 182.795 722.267 173.611C739.61 138.877 731.276 108.1 718.58 71.4732C715.638 62.9865 712.997 54.2718 710.445 45.8418C709.267 41.9548 708.09 38.0704 706.882 34.1964ZM1203.22 1132.33C1205.34 1140.85 1210.74 1148.05 1218.43 1152.61C1226.12 1157.18 1234.9 1158.52 1243.14 1156.4C1251.48 1154.25 1258.61 1148.73 1263.23 1140.85C1267.71 1133.23 1268.99 1124.57 1266.84 1116.44C1264.62 1108.06 1258.96 1100.89 1250.89 1096.24C1245.9 1093.37 1240.4 1092 1234.96 1092C1223.95 1092 1213.13 1097.58 1207.05 1107.58C1202.47 1115.1 1201.11 1123.89 1203.22 1132.33ZM999.272 990.231C1002.71 992.738 1007.62 993.529 1012.39 992.346C1017.14 991.168 1021.09 988.199 1022.95 984.404C1027.71 974.668 1025.56 966.496 1016.89 961.39C1006.02 955.004 998.5 960.882 994.057 967.05C989.075 976.462 990.783 984.045 999.272 990.231ZM795.063 397.868C798.13 406.93 804.55 414.226 813.141 418.412C821.497 422.479 830.838 423.059 839.453 420.03C857.525 413.677 867.561 393.115 861.367 375.129C858.345 366.356 851.965 359.205 843.4 354.994C838.372 352.524 833.018 351.275 827.695 351.275C823.957 351.275 820.231 351.89 816.644 353.131C798.206 359.502 788.727 379.153 795.063 397.868ZM748.854 192.703C749.817 196.635 755.745 200.322 763.249 204.991C766.464 206.992 770.009 209.195 773.671 211.738C775.295 207.39 777.047 203.344 778.635 199.676C781.934 192.061 785.051 184.868 783.516 182.087C781.004 177.534 773.536 174.785 766.314 172.127C763.878 171.228 761.384 170.311 759.009 169.302C757.867 171.457 756.577 173.629 755.317 175.75C751.622 181.966 747.799 188.396 748.854 192.703Z"/>
</mask>
<path d="M375.329 273.727C369.651 265.956 371.345 255.052 379.113 249.371L526.249 141.769C534.017 136.088 544.917 137.782 550.595 145.554L579.096 184.56C584.774 192.332 583.08 203.237 575.312 208.917L498.081 265.395C490.313 271.076 488.619 281.982 494.297 289.753L500.924 298.823C506.602 306.594 517.503 308.289 525.27 302.608L577.034 264.754C584.801 259.074 595.701 260.767 601.379 268.539L631.152 309.289C636.831 317.06 635.137 327.965 627.369 333.646L575.607 371.5C567.84 377.181 566.146 388.085 571.824 395.856L616.547 457.067C622.225 464.839 620.53 475.743 612.762 481.424L570.983 511.977C563.215 517.657 552.316 515.962 546.637 508.191L375.329 273.727ZM974.765 334.192L1027.32 336.746C1036.93 337.213 1045.1 329.797 1045.56 320.182L1049.64 236.305C1050.46 219.39 1072.47 213.464 1081.67 227.683L1151.39 335.503C1154.43 340.216 1159.56 343.172 1165.17 343.444L1215.94 345.915C1225.55 346.381 1233.72 338.966 1234.19 329.351L1248.27 39.2664C1248.74 29.652 1241.33 21.4785 1231.72 21.012L1179.16 18.4589C1169.55 17.9924 1161.38 25.4081 1160.92 35.0224L1156.82 119.398C1156 136.309 1134 142.238 1124.8 128.028L1054.66 19.6717C1051.62 14.9625 1046.49 12.0086 1040.88 11.7367L990.541 9.29186C980.93 8.82531 972.761 16.241 972.294 25.8553L958.209 315.936C957.742 325.551 965.155 333.724 974.765 334.192ZM1302.3 347.295L1471.45 111.264C1477.05 103.442 1487.94 101.646 1495.76 107.255L1591.24 175.746C1609.28 188.683 1624.01 204.556 1635.02 222.92C1645.95 241.171 1653.24 260.704 1656.69 280.982C1660.15 301.304 1659.63 322.254 1655.17 343.257C1650.67 364.417 1641.74 384.412 1628.64 402.692C1615.7 420.742 1599.84 435.478 1581.48 446.489C1563.26 457.413 1543.71 464.763 1523.38 468.337C1516.37 469.57 1509.29 470.319 1502.17 470.584C1488.54 471.095 1474.77 469.837 1461 466.813C1439.98 462.197 1420.06 453.21 1401.79 440.104L1306.31 371.616C1298.49 366.007 1296.69 355.118 1302.3 347.295ZM1427.09 353.245L1447.98 368.233C1456.53 374.362 1465.88 378.587 1475.79 380.785C1485.77 383.009 1495.7 383.333 1505.28 381.759C1514.84 380.18 1524.13 376.685 1532.9 371.368C1541.58 366.092 1549.17 358.968 1555.45 350.199C1561.57 341.664 1565.79 332.301 1568 322.369C1570.23 312.343 1570.59 302.323 1569.08 292.595C1567.57 282.941 1564.13 273.619 1558.84 264.897C1553.56 256.208 1546.56 248.697 1538.03 242.58L1517.13 227.591C1509.31 221.983 1498.43 223.777 1492.82 231.6L1423.08 328.923C1417.47 336.746 1419.27 347.637 1427.09 353.245ZM706.882 34.1964L706.088 31.6549L721.011 24.4312L722.474 26.8078C723.469 28.4239 724.556 29.9949 725.71 31.6575C728.29 35.3821 730.959 39.2355 732.492 43.6341C734.735 50.069 736.552 56.7656 738.308 63.2417C741.318 74.3395 744.431 85.8174 749.694 95.7462C757.164 109.843 768.992 130.112 785.389 143.323C815.876 167.895 819.174 189.369 797.153 219.91C793.29 225.265 791.518 228.574 791.884 229.744C794.673 237.717 796.998 246.013 799.245 254.035C808.312 286.386 816.875 316.942 854.625 332.157C872.716 339.452 885.296 354.14 889.138 372.46C893.316 392.381 886.606 413.693 871.186 429.475C862.43 438.433 861.018 444.806 865.14 456.753C879.926 499.603 894.797 543.224 909.178 585.41C940.656 677.753 973.206 773.243 1006.9 866.535C1013.5 884.811 1028.8 900.742 1043.6 916.151C1047.26 919.967 1051.05 923.912 1054.6 927.796C1071.54 946.301 1078.44 969.785 1073.58 990.746C1075.42 992.473 1077.32 994.072 1079.32 995.483C1115.1 1020.83 1103.97 1015.68 1139.84 1039.68C1157.43 1051.45 1166.69 1066.32 1184.5 1078.4C1191.39 1083.07 1194.92 1083.78 1202.25 1078.82C1220.06 1066.75 1240.43 1064.24 1258.14 1071.93C1276.04 1079.71 1288.26 1096.55 1291.67 1118.15C1294.76 1137.72 1302.8 1151.4 1316.99 1161.18C1333.04 1172.25 1349.11 1183.83 1364.65 1195.02C1370.28 1199.07 1375.91 1203.12 1381.54 1207.16C1384.49 1209.27 1387.4 1211.5 1390.21 1213.65C1391.5 1214.64 1392.8 1215.63 1394.09 1216.6L1397.07 1218.85L1390.67 1229.34L1387.29 1227.67C1385.84 1226.95 1384.38 1226.25 1382.92 1225.54C1379.72 1224.01 1376.41 1222.41 1373.2 1220.64C1360.38 1213.58 1347.57 1206.49 1334.77 1199.39C1323.99 1193.41 1313.21 1187.44 1302.41 1181.48C1287.46 1173.23 1272.73 1172.01 1256.07 1177.64C1234.96 1184.76 1214.23 1181.9 1199.19 1169.76C1183.49 1157.1 1176.01 1136.29 1178.66 1112.67C1179.01 1109.58 1176.36 1103.68 1174.01 1102.32L1170.49 1100.27C1114.07 1067.51 1112.89 1060.92 1054.57 1029.38C1052.99 1028.52 1051.32 1027.78 1049.59 1027.11C1039.19 1034.89 1026.57 1039.38 1013.34 1039.38C1012.91 1039.38 1012.48 1039.37 1012.05 1039.36C983.42 1038.73 962.82 1024.98 954.046 1000.63C950.254 990.112 950.788 978.154 951.305 966.594C951.468 962.952 951.636 959.186 951.656 955.597C951.705 946.405 952.533 936.944 953.332 927.794C954.896 909.921 956.512 891.437 952.175 875.122C926.685 779.229 899.055 682.174 872.334 588.316C861.042 548.651 849.364 507.637 838.006 467.259C834.379 454.362 830.619 448.572 816.72 446.088C795.388 442.28 778.572 429.533 770.582 411.109C762.688 392.91 764.84 372.173 776.482 354.215C797.778 321.371 787.471 292.321 776.557 261.564C773.669 253.428 770.684 245.013 768.367 236.605C767.702 235.104 761.121 233.122 757.958 232.169C756.376 231.692 754.847 231.23 753.5 230.762C738.392 225.504 726.323 214.861 721.21 202.289C717.316 192.713 717.681 182.795 722.267 173.611C739.61 138.877 731.276 108.1 718.58 71.4732C715.638 62.9865 712.997 54.2718 710.445 45.8418C709.267 41.9548 708.09 38.0704 706.882 34.1964ZM1203.22 1132.33C1205.34 1140.85 1210.74 1148.05 1218.43 1152.61C1226.12 1157.18 1234.9 1158.52 1243.14 1156.4C1251.48 1154.25 1258.61 1148.73 1263.23 1140.85C1267.71 1133.23 1268.99 1124.57 1266.84 1116.44C1264.62 1108.06 1258.96 1100.89 1250.89 1096.24C1245.9 1093.37 1240.4 1092 1234.96 1092C1223.95 1092 1213.13 1097.58 1207.05 1107.58C1202.47 1115.1 1201.11 1123.89 1203.22 1132.33ZM999.272 990.231C1002.71 992.738 1007.62 993.529 1012.39 992.346C1017.14 991.168 1021.09 988.199 1022.95 984.404C1027.71 974.668 1025.56 966.496 1016.89 961.39C1006.02 955.004 998.5 960.882 994.057 967.05C989.075 976.462 990.783 984.045 999.272 990.231ZM795.063 397.868C798.13 406.93 804.55 414.226 813.141 418.412C821.497 422.479 830.838 423.059 839.453 420.03C857.525 413.677 867.561 393.115 861.367 375.129C858.345 366.356 851.965 359.205 843.4 354.994C838.372 352.524 833.018 351.275 827.695 351.275C823.957 351.275 820.231 351.89 816.644 353.131C798.206 359.502 788.727 379.153 795.063 397.868ZM748.854 192.703C749.817 196.635 755.745 200.322 763.249 204.991C766.464 206.992 770.009 209.195 773.671 211.738C775.295 207.39 777.047 203.344 778.635 199.676C781.934 192.061 785.051 184.868 783.516 182.087C781.004 177.534 773.536 174.785 766.314 172.127C763.878 171.228 761.384 170.311 759.009 169.302C757.867 171.457 756.577 173.629 755.317 175.75C751.622 181.966 747.799 188.396 748.854 192.703Z" fill="white"/>
<path d="M375.329 273.727C369.651 265.956 371.345 255.052 379.113 249.371L526.249 141.769C534.017 136.088 544.917 137.782 550.595 145.554L579.096 184.56C584.774 192.332 583.08 203.237 575.312 208.917L498.081 265.395C490.313 271.076 488.619 281.982 494.297 289.753L500.924 298.823C506.602 306.594 517.503 308.289 525.27 302.608L577.034 264.754C584.801 259.074 595.701 260.767 601.379 268.539L631.152 309.289C636.831 317.06 635.137 327.965 627.369 333.646L575.607 371.5C567.84 377.181 566.146 388.085 571.824 395.856L616.547 457.067C622.225 464.839 620.53 475.743 612.762 481.424L570.983 511.977C563.215 517.657 552.316 515.962 546.637 508.191L375.329 273.727ZM974.765 334.192L1027.32 336.746C1036.93 337.213 1045.1 329.797 1045.56 320.182L1049.64 236.305C1050.46 219.39 1072.47 213.464 1081.67 227.683L1151.39 335.503C1154.43 340.216 1159.56 343.172 1165.17 343.444L1215.94 345.915C1225.55 346.381 1233.72 338.966 1234.19 329.351L1248.27 39.2664C1248.74 29.652 1241.33 21.4785 1231.72 21.012L1179.16 18.4589C1169.55 17.9924 1161.38 25.4081 1160.92 35.0224L1156.82 119.398C1156 136.309 1134 142.238 1124.8 128.028L1054.66 19.6717C1051.62 14.9625 1046.49 12.0086 1040.88 11.7367L990.541 9.29186C980.93 8.82531 972.761 16.241 972.294 25.8553L958.209 315.936C957.742 325.551 965.155 333.724 974.765 334.192ZM1302.3 347.295L1471.45 111.264C1477.05 103.442 1487.94 101.646 1495.76 107.255L1591.24 175.746C1609.28 188.683 1624.01 204.556 1635.02 222.92C1645.95 241.171 1653.24 260.704 1656.69 280.982C1660.15 301.304 1659.63 322.254 1655.17 343.257C1650.67 364.417 1641.74 384.412 1628.64 402.692C1615.7 420.742 1599.84 435.478 1581.48 446.489C1563.26 457.413 1543.71 464.763 1523.38 468.337C1516.37 469.57 1509.29 470.319 1502.17 470.584C1488.54 471.095 1474.77 469.837 1461 466.813C1439.98 462.197 1420.06 453.21 1401.79 440.104L1306.31 371.616C1298.49 366.007 1296.69 355.118 1302.3 347.295ZM1427.09 353.245L1447.98 368.233C1456.53 374.362 1465.88 378.587 1475.79 380.785C1485.77 383.009 1495.7 383.333 1505.28 381.759C1514.84 380.18 1524.13 376.685 1532.9 371.368C1541.58 366.092 1549.17 358.968 1555.45 350.199C1561.57 341.664 1565.79 332.301 1568 322.369C1570.23 312.343 1570.59 302.323 1569.08 292.595C1567.57 282.941 1564.13 273.619 1558.84 264.897C1553.56 256.208 1546.56 248.697 1538.03 242.58L1517.13 227.591C1509.31 221.983 1498.43 223.777 1492.82 231.6L1423.08 328.923C1417.47 336.746 1419.27 347.637 1427.09 353.245ZM706.882 34.1964L706.088 31.6549L721.011 24.4312L722.474 26.8078C723.469 28.4239 724.556 29.9949 725.71 31.6575C728.29 35.3821 730.959 39.2355 732.492 43.6341C734.735 50.069 736.552 56.7656 738.308 63.2417C741.318 74.3395 744.431 85.8174 749.694 95.7462C757.164 109.843 768.992 130.112 785.389 143.323C815.876 167.895 819.174 189.369 797.153 219.91C793.29 225.265 791.518 228.574 791.884 229.744C794.673 237.717 796.998 246.013 799.245 254.035C808.312 286.386 816.875 316.942 854.625 332.157C872.716 339.452 885.296 354.14 889.138 372.46C893.316 392.381 886.606 413.693 871.186 429.475C862.43 438.433 861.018 444.806 865.14 456.753C879.926 499.603 894.797 543.224 909.178 585.41C940.656 677.753 973.206 773.243 1006.9 866.535C1013.5 884.811 1028.8 900.742 1043.6 916.151C1047.26 919.967 1051.05 923.912 1054.6 927.796C1071.54 946.301 1078.44 969.785 1073.58 990.746C1075.42 992.473 1077.32 994.072 1079.32 995.483C1115.1 1020.83 1103.97 1015.68 1139.84 1039.68C1157.43 1051.45 1166.69 1066.32 1184.5 1078.4C1191.39 1083.07 1194.92 1083.78 1202.25 1078.82C1220.06 1066.75 1240.43 1064.24 1258.14 1071.93C1276.04 1079.71 1288.26 1096.55 1291.67 1118.15C1294.76 1137.72 1302.8 1151.4 1316.99 1161.18C1333.04 1172.25 1349.11 1183.83 1364.65 1195.02C1370.28 1199.07 1375.91 1203.12 1381.54 1207.16C1384.49 1209.27 1387.4 1211.5 1390.21 1213.65C1391.5 1214.64 1392.8 1215.63 1394.09 1216.6L1397.07 1218.85L1390.67 1229.34L1387.29 1227.67C1385.84 1226.95 1384.38 1226.25 1382.92 1225.54C1379.72 1224.01 1376.41 1222.41 1373.2 1220.64C1360.38 1213.58 1347.57 1206.49 1334.77 1199.39C1323.99 1193.41 1313.21 1187.44 1302.41 1181.48C1287.46 1173.23 1272.73 1172.01 1256.07 1177.64C1234.96 1184.76 1214.23 1181.9 1199.19 1169.76C1183.49 1157.1 1176.01 1136.29 1178.66 1112.67C1179.01 1109.58 1176.36 1103.68 1174.01 1102.32L1170.49 1100.27C1114.07 1067.51 1112.89 1060.92 1054.57 1029.38C1052.99 1028.52 1051.32 1027.78 1049.59 1027.11C1039.19 1034.89 1026.57 1039.38 1013.34 1039.38C1012.91 1039.38 1012.48 1039.37 1012.05 1039.36C983.42 1038.73 962.82 1024.98 954.046 1000.63C950.254 990.112 950.788 978.154 951.305 966.594C951.468 962.952 951.636 959.186 951.656 955.597C951.705 946.405 952.533 936.944 953.332 927.794C954.896 909.921 956.512 891.437 952.175 875.122C926.685 779.229 899.055 682.174 872.334 588.316C861.042 548.651 849.364 507.637 838.006 467.259C834.379 454.362 830.619 448.572 816.72 446.088C795.388 442.28 778.572 429.533 770.582 411.109C762.688 392.91 764.84 372.173 776.482 354.215C797.778 321.371 787.471 292.321 776.557 261.564C773.669 253.428 770.684 245.013 768.367 236.605C767.702 235.104 761.121 233.122 757.958 232.169C756.376 231.692 754.847 231.23 753.5 230.762C738.392 225.504 726.323 214.861 721.21 202.289C717.316 192.713 717.681 182.795 722.267 173.611C739.61 138.877 731.276 108.1 718.58 71.4732C715.638 62.9865 712.997 54.2718 710.445 45.8418C709.267 41.9548 708.09 38.0704 706.882 34.1964ZM1203.22 1132.33C1205.34 1140.85 1210.74 1148.05 1218.43 1152.61C1226.12 1157.18 1234.9 1158.52 1243.14 1156.4C1251.48 1154.25 1258.61 1148.73 1263.23 1140.85C1267.71 1133.23 1268.99 1124.57 1266.84 1116.44C1264.62 1108.06 1258.96 1100.89 1250.89 1096.24C1245.9 1093.37 1240.4 1092 1234.96 1092C1223.95 1092 1213.13 1097.58 1207.05 1107.58C1202.47 1115.1 1201.11 1123.89 1203.22 1132.33ZM999.272 990.231C1002.71 992.738 1007.62 993.529 1012.39 992.346C1017.14 991.168 1021.09 988.199 1022.95 984.404C1027.71 974.668 1025.56 966.496 1016.89 961.39C1006.02 955.004 998.5 960.882 994.057 967.05C989.075 976.462 990.783 984.045 999.272 990.231ZM795.063 397.868C798.13 406.93 804.55 414.226 813.141 418.412C821.497 422.479 830.838 423.059 839.453 420.03C857.525 413.677 867.561 393.115 861.367 375.129C858.345 366.356 851.965 359.205 843.4 354.994C838.372 352.524 833.018 351.275 827.695 351.275C823.957 351.275 820.231 351.89 816.644 353.131C798.206 359.502 788.727 379.153 795.063 397.868ZM748.854 192.703C749.817 196.635 755.745 200.322 763.249 204.991C766.464 206.992 770.009 209.195 773.671 211.738C775.295 207.39 777.047 203.344 778.635 199.676C781.934 192.061 785.051 184.868 783.516 182.087C781.004 177.534 773.536 174.785 766.314 172.127C763.878 171.228 761.384 170.311 759.009 169.302C757.867 171.457 756.577 173.629 755.317 175.75C751.622 181.966 747.799 188.396 748.854 192.703Z" stroke="#5B5EAB" stroke-width="17.4438" mask="url(#path-12-outside-4_1812_1167)"/>
<defs>
<linearGradient id="paint0_linear_1812_1167" x1="1649.4" y1="1181.14" x2="1649.4" y2="1819.6" gradientUnits="userSpaceOnUse">
<stop stop-color="white"/>
<stop offset="1" stop-color="#9598F7"/>
</linearGradient>
<linearGradient id="paint1_linear_1812_1167" x1="1018.5" y1="1923.73" x2="1018.5" y2="329.365" gradientUnits="userSpaceOnUse">
<stop stop-color="#9296F7"/>
<stop offset="0.515" stop-color="#D9C6FF"/>
<stop offset="0.902387" stop-color="#F1F2FF"/>
</linearGradient>
<linearGradient id="paint2_linear_1812_1167" x1="1649.4" y1="1181.14" x2="1649.4" y2="1819.6" gradientUnits="userSpaceOnUse">
<stop stop-color="white"/>
<stop offset="1" stop-color="#9598F7"/>
</linearGradient>
<linearGradient id="paint3_linear_1812_1167" x1="1018.5" y1="1923.73" x2="1018.5" y2="329.365" gradientUnits="userSpaceOnUse">
<stop stop-color="#9296F7"/>
<stop offset="0.515" stop-color="#D9C6FF"/>
<stop offset="0.902387" stop-color="#F1F2FF"/>
</linearGradient>
</defs>
</svg>
