<svg width="1230" height="1381" viewBox="0 0 1230 1381" fill="none" xmlns="http://www.w3.org/2000/svg">
<path d="M1042 1205H10V10H597.172C597.172 10 635.936 10 656.271 36.0613C724.329 104.263 752.5 96.7079 861.5 205C970.5 313.292 949.002 327.477 1015.95 394.561C1042 420.67 1042 455.582 1042 455.582V1205Z" fill="#FAFEBF"/>
<path d="M1015.95 394.561C1042 420.67 1042 455.582 1042 455.582V1205H10V10H597.172C597.172 10 635.936 10 656.271 36.0613M1015.95 394.561C965.018 394.561 904.645 382.949 837.5 382C766.663 380.999 662.626 389.476 662.626 389.476C662.626 389.476 674.704 295.569 673.5 232.5C672.069 157.551 673.5 95 656.271 36.0613M1015.95 394.561C949.002 327.477 970.5 313.292 861.5 205C752.5 96.7079 724.329 104.263 656.271 36.0613" stroke="black" stroke-width="20"/>
<path d="M1015.95 394.561C1042 420.67 1046 432 942 451C838 470 653 399 653 399C653 399 735.454 383.253 828 382C895.251 381.089 968.54 394.561 1015.95 394.561Z" fill="#010101" fill-opacity="0.3"/>
<path d="M673.5 326.5L668 73C668 73 663.454 60.9815 659.5 42C657 30 634.5 19.5 634.5 19.5C634.5 19.5 603.5 46.5 609.5 91C615.5 135.5 673.5 326.5 673.5 326.5Z" fill="black" fill-opacity="0.2"/>
<path d="M100 627L952 627" stroke="black" stroke-width="20" stroke-linecap="round"/>
<path d="M100 807H666" stroke="black" stroke-width="20" stroke-linecap="round"/>
<path d="M99.9972 897H869.003" stroke="black" stroke-width="20" stroke-linecap="round"/>
<path d="M100 987H666" stroke="black" stroke-width="20" stroke-linecap="round"/>
<path d="M99.9994 1077H496.001" stroke="black" stroke-width="20" stroke-linecap="round"/>
<path d="M100 717H666" stroke="black" stroke-width="20" stroke-linecap="round"/>
<path d="M797 923C843.169 876.831 885.093 782.065 896.161 755.852C897.213 753.358 900.787 753.358 901.839 755.852C912.907 782.065 954.831 876.831 1001 923C1047.17 969.169 1141.93 1011.09 1168.15 1022.16C1170.64 1023.21 1170.64 1026.79 1168.15 1027.84C1141.93 1038.91 1047.17 1080.83 1001 1127C954.831 1173.17 912.907 1267.93 901.839 1294.15C900.787 1296.64 897.213 1296.64 896.161 1294.15C885.093 1267.93 843.169 1173.17 797 1127C750.831 1080.83 656.065 1038.91 629.852 1027.84C627.358 1026.79 627.358 1023.21 629.852 1022.16C656.065 1011.09 750.831 969.169 797 923Z" fill="black" fill-opacity="0.2"/>
<path d="M767 883C813.169 836.831 855.093 742.065 866.161 715.852C867.213 713.358 870.787 713.358 871.839 715.852C882.907 742.065 924.831 836.831 971 883C1017.17 929.169 1111.93 971.093 1138.15 982.161C1140.64 983.213 1140.64 986.787 1138.15 987.839C1111.93 998.907 1017.17 1040.83 971 1087C924.831 1133.17 882.907 1227.93 871.839 1254.15C870.787 1256.64 867.213 1256.64 866.161 1254.15C855.093 1227.93 813.169 1133.17 767 1087C720.831 1040.83 626.065 998.907 599.852 987.839C597.358 986.787 597.358 983.213 599.852 982.161C626.065 971.093 720.831 929.169 767 883Z" fill="#6CA494" stroke="#A4E2CD" stroke-width="10"/>
<path d="M794 910C843.466 860.534 863.226 748.268 867.87 717.137C868.045 715.968 869.955 715.968 870.13 717.137C874.774 748.268 894.534 860.534 944 910C993.466 959.466 1105.73 979.226 1136.86 983.87C1138.03 984.045 1138.03 985.955 1136.86 986.13C1105.73 990.774 993.466 1010.53 944 1060C894.534 1109.47 874.774 1221.73 870.13 1252.86C869.955 1254.03 868.045 1254.03 867.87 1252.86C863.226 1221.73 843.466 1109.47 794 1060C744.534 1010.53 632.268 990.774 601.137 986.13C599.968 985.955 599.968 984.045 601.137 983.87C632.268 979.226 744.534 959.466 794 910Z" fill="#A4E2CD" stroke="#A4E2CD" stroke-width="3"/>
<path d="M1021.83 1172.83C1045.68 1148.98 1067.47 1101.58 1075.11 1083.88C1076.18 1081.39 1079.82 1081.39 1080.89 1083.88C1088.53 1101.58 1110.32 1148.98 1134.17 1172.83C1158.02 1196.68 1205.42 1218.47 1223.12 1226.11C1225.61 1227.18 1225.61 1230.82 1223.12 1231.89C1205.42 1239.53 1158.02 1261.32 1134.17 1285.17C1110.32 1309.02 1088.53 1356.42 1080.89 1374.12C1079.82 1376.61 1076.18 1376.61 1075.11 1374.12C1067.47 1356.42 1045.68 1309.02 1021.83 1285.17C997.976 1261.32 950.576 1239.53 932.877 1231.89C930.392 1230.82 930.392 1227.18 932.877 1226.11C950.576 1218.47 997.976 1196.68 1021.83 1172.83Z" fill="black" fill-opacity="0.2"/>
<path d="M1011.83 1132.83C1035.68 1108.98 1057.47 1061.58 1065.11 1043.88C1066.18 1041.39 1069.82 1041.39 1070.89 1043.88C1078.53 1061.58 1100.32 1108.98 1124.17 1132.83C1148.02 1156.68 1195.42 1178.47 1213.12 1186.11C1215.61 1187.18 1215.61 1190.82 1213.12 1191.89C1195.42 1199.53 1148.02 1221.32 1124.17 1245.17C1100.32 1269.02 1078.53 1316.42 1070.89 1334.12C1069.82 1336.61 1066.18 1336.61 1065.11 1334.12C1057.47 1316.42 1035.68 1269.02 1011.83 1245.17C987.976 1221.32 940.576 1199.53 922.877 1191.89C920.392 1190.82 920.392 1187.18 922.877 1186.11C940.576 1178.47 987.976 1156.68 1011.83 1132.83Z" fill="#6CA494" stroke="#A4E2CD" stroke-width="10"/>
<path d="M1026.7 1147.7C1052.24 1122.15 1063.4 1066.18 1066.8 1045.18C1066.99 1044.01 1069.01 1044.01 1069.2 1045.18C1072.6 1066.18 1083.76 1122.15 1109.3 1147.7C1134.85 1173.24 1190.82 1184.4 1211.82 1187.8C1212.99 1187.99 1212.99 1190.01 1211.82 1190.2C1190.82 1193.6 1134.85 1204.76 1109.3 1230.3C1083.76 1255.85 1072.6 1311.82 1069.2 1332.82C1069.01 1333.99 1066.99 1333.99 1066.8 1332.82C1063.4 1311.82 1052.24 1255.85 1026.7 1230.3C1001.15 1204.76 945.175 1193.6 924.176 1190.2C923.009 1190.01 923.009 1187.99 924.176 1187.8C945.175 1184.4 1001.15 1173.24 1026.7 1147.7Z" fill="#A4E2CD" stroke="#A4E2CD" stroke-width="3"/>
<circle cx="332.919" cy="332.919" r="222.919" fill="black" fill-opacity="0.2"/>
<circle cx="312.919" cy="312.919" r="212.919" fill="#275245" stroke="#6CA494" stroke-width="20"/>
<path d="M312.918 100C337.97 100 363.327 120.507 383.016 159.773C402.409 198.45 414.693 252.581 414.693 312.919C414.692 373.256 402.409 427.387 383.016 466.063C363.327 505.33 337.97 525.837 312.918 525.837C287.866 525.837 262.51 505.33 242.821 466.063C223.429 427.387 211.145 373.256 211.145 312.919C211.145 252.581 223.429 198.45 242.821 159.773C262.51 120.507 287.866 100 312.918 100Z" fill="#275245" stroke="#6CA494" stroke-width="20"/>
<path d="M91.4679 312.08H534.579M312.918 92.5164V204.29M312.918 534.159V424.063M147.46 167.801C147.46 167.801 199.216 187.815 231.238 195.063C263.259 202.311 312.918 204.29 312.918 204.29M312.918 204.29V424.063M312.918 204.29C312.918 204.29 362.504 202.311 394.075 195.063C425.646 187.815 478.377 167.801 478.377 167.801M147.46 459.084C147.46 459.084 197.005 441.193 228.616 433.29C260.228 425.387 312.918 424.063 312.918 424.063M312.918 424.063C312.918 424.063 365.118 425.387 397.221 433.29C429.324 441.193 478.377 459.084 478.377 459.084" stroke="#6CA494" stroke-width="20"/>
</svg>
